<svg width="393" height="1791" viewBox="0 0 393 1791" fill="none" xmlns="http://www.w3.org/2000/svg">
<g clip-path="url(#clip0_3065_25107)">
<path d="M10.56 0V1790.72" stroke="#E8E8E8" stroke-miterlimit="10"/>
<path d="M134.52 0V1790.72" stroke="#E8E8E8" stroke-miterlimit="10"/>
<path d="M258.48 0V1790.72" stroke="#E8E8E8" stroke-miterlimit="10"/>
<path d="M382.44 0V1790.72" stroke="#E8E8E8" stroke-miterlimit="10"/>
<path d="M0 62.1101H393" stroke="#E8E8E8" stroke-miterlimit="10"/>
<path d="M0 227.59H393" stroke="#E8E8E8" stroke-miterlimit="10"/>
<path d="M0 393.08H393" stroke="#E8E8E8" stroke-miterlimit="10"/>
<path d="M0 558.56H393" stroke="#E8E8E8" stroke-miterlimit="10"/>
<path d="M0 724.05H393" stroke="#E8E8E8" stroke-miterlimit="10"/>
<path d="M0 724.26H393" stroke="#E8E8E8" stroke-miterlimit="10"/>
<path d="M0 889.74H393" stroke="#E8E8E8" stroke-miterlimit="10"/>
<path d="M0 1055.23H393" stroke="#E8E8E8" stroke-miterlimit="10"/>
<path d="M0 1220.71H393" stroke="#E8E8E8" stroke-miterlimit="10"/>
<path d="M0 1386.2H393" stroke="#E8E8E8" stroke-miterlimit="10"/>
<path d="M0 1551.68H393" stroke="#E8E8E8" stroke-miterlimit="10"/>
<path d="M0 1717.16H393" stroke="#E8E8E8" stroke-miterlimit="10"/>
<path d="M382.44 65.25C384.174 65.25 385.58 63.8441 385.58 62.11C385.58 60.3758 384.174 58.97 382.44 58.97C380.706 58.97 379.3 60.3758 379.3 62.11C379.3 63.8441 380.706 65.25 382.44 65.25Z" fill="#E8E8E8"/>
<path d="M258.48 65.25C260.214 65.25 261.62 63.8441 261.62 62.11C261.62 60.3758 260.214 58.97 258.48 58.97C256.746 58.97 255.34 60.3758 255.34 62.11C255.34 63.8441 256.746 65.25 258.48 65.25Z" fill="#E8E8E8"/>
<path d="M134.52 65.25C136.254 65.25 137.66 63.8441 137.66 62.11C137.66 60.3758 136.254 58.97 134.52 58.97C132.786 58.97 131.38 60.3758 131.38 62.11C131.38 63.8441 132.786 65.25 134.52 65.25Z" fill="#E8E8E8"/>
<path d="M10.56 65.25C12.2942 65.25 13.7 63.8441 13.7 62.11C13.7 60.3758 12.2942 58.97 10.56 58.97C8.82582 58.97 7.42 60.3758 7.42 62.11C7.42 63.8441 8.82582 65.25 10.56 65.25Z" fill="#E8E8E8"/>
<path d="M382.44 230.73C384.174 230.73 385.58 229.324 385.58 227.59C385.58 225.856 384.174 224.45 382.44 224.45C380.706 224.45 379.3 225.856 379.3 227.59C379.3 229.324 380.706 230.73 382.44 230.73Z" fill="#E8E8E8"/>
<path d="M258.48 230.73C260.214 230.73 261.62 229.324 261.62 227.59C261.62 225.856 260.214 224.45 258.48 224.45C256.746 224.45 255.34 225.856 255.34 227.59C255.34 229.324 256.746 230.73 258.48 230.73Z" fill="#E8E8E8"/>
<path d="M134.52 230.73C136.254 230.73 137.66 229.324 137.66 227.59C137.66 225.856 136.254 224.45 134.52 224.45C132.786 224.45 131.38 225.856 131.38 227.59C131.38 229.324 132.786 230.73 134.52 230.73Z" fill="#E8E8E8"/>
<path d="M10.56 230.73C12.2942 230.73 13.7 229.324 13.7 227.59C13.7 225.856 12.2942 224.45 10.56 224.45C8.82582 224.45 7.42 225.856 7.42 227.59C7.42 229.324 8.82582 230.73 10.56 230.73Z" fill="#E8E8E8"/>
<path d="M382.44 396.22C384.174 396.22 385.58 394.814 385.58 393.08C385.58 391.346 384.174 389.94 382.44 389.94C380.706 389.94 379.3 391.346 379.3 393.08C379.3 394.814 380.706 396.22 382.44 396.22Z" fill="#E8E8E8"/>
<path d="M258.48 396.22C260.214 396.22 261.62 394.814 261.62 393.08C261.62 391.346 260.214 389.94 258.48 389.94C256.746 389.94 255.34 391.346 255.34 393.08C255.34 394.814 256.746 396.22 258.48 396.22Z" fill="#E8E8E8"/>
<path d="M134.52 396.22C136.254 396.22 137.66 394.814 137.66 393.08C137.66 391.346 136.254 389.94 134.52 389.94C132.786 389.94 131.38 391.346 131.38 393.08C131.38 394.814 132.786 396.22 134.52 396.22Z" fill="#E8E8E8"/>
<path d="M10.56 396.22C12.2942 396.22 13.7 394.814 13.7 393.08C13.7 391.346 12.2942 389.94 10.56 389.94C8.82582 389.94 7.42 391.346 7.42 393.08C7.42 394.814 8.82582 396.22 10.56 396.22Z" fill="#E8E8E8"/>
<path d="M382.44 561.7C384.174 561.7 385.58 560.294 385.58 558.56C385.58 556.826 384.174 555.42 382.44 555.42C380.706 555.42 379.3 556.826 379.3 558.56C379.3 560.294 380.706 561.7 382.44 561.7Z" fill="#E8E8E8"/>
<path d="M258.48 561.7C260.214 561.7 261.62 560.294 261.62 558.56C261.62 556.826 260.214 555.42 258.48 555.42C256.746 555.42 255.34 556.826 255.34 558.56C255.34 560.294 256.746 561.7 258.48 561.7Z" fill="#E8E8E8"/>
<path d="M134.52 561.7C136.254 561.7 137.66 560.294 137.66 558.56C137.66 556.826 136.254 555.42 134.52 555.42C132.786 555.42 131.38 556.826 131.38 558.56C131.38 560.294 132.786 561.7 134.52 561.7Z" fill="#E8E8E8"/>
<path d="M10.56 561.7C12.2942 561.7 13.7 560.294 13.7 558.56C13.7 556.826 12.2942 555.42 10.56 555.42C8.82582 555.42 7.42 556.826 7.42 558.56C7.42 560.294 8.82582 561.7 10.56 561.7Z" fill="#E8E8E8"/>
<path d="M382.44 727.19C384.174 727.19 385.58 725.784 385.58 724.05C385.58 722.316 384.174 720.91 382.44 720.91C380.706 720.91 379.3 722.316 379.3 724.05C379.3 725.784 380.706 727.19 382.44 727.19Z" fill="#E8E8E8"/>
<path d="M258.48 727.19C260.214 727.19 261.62 725.784 261.62 724.05C261.62 722.316 260.214 720.91 258.48 720.91C256.746 720.91 255.34 722.316 255.34 724.05C255.34 725.784 256.746 727.19 258.48 727.19Z" fill="#E8E8E8"/>
<path d="M134.52 727.19C136.254 727.19 137.66 725.784 137.66 724.05C137.66 722.316 136.254 720.91 134.52 720.91C132.786 720.91 131.38 722.316 131.38 724.05C131.38 725.784 132.786 727.19 134.52 727.19Z" fill="#E8E8E8"/>
<path d="M10.56 727.19C12.2942 727.19 13.7 725.784 13.7 724.05C13.7 722.316 12.2942 720.91 10.56 720.91C8.82582 720.91 7.42 722.316 7.42 724.05C7.42 725.784 8.82582 727.19 10.56 727.19Z" fill="#E8E8E8"/>
<path d="M382.44 892.67C384.174 892.67 385.58 891.264 385.58 889.53C385.58 887.796 384.174 886.39 382.44 886.39C380.706 886.39 379.3 887.796 379.3 889.53C379.3 891.264 380.706 892.67 382.44 892.67Z" fill="#E8E8E8"/>
<path d="M258.48 892.67C260.214 892.67 261.62 891.264 261.62 889.53C261.62 887.796 260.214 886.39 258.48 886.39C256.746 886.39 255.34 887.796 255.34 889.53C255.34 891.264 256.746 892.67 258.48 892.67Z" fill="#E8E8E8"/>
<path d="M134.52 892.67C136.254 892.67 137.66 891.264 137.66 889.53C137.66 887.796 136.254 886.39 134.52 886.39C132.786 886.39 131.38 887.796 131.38 889.53C131.38 891.264 132.786 892.67 134.52 892.67Z" fill="#E8E8E8"/>
<path d="M10.56 892.67C12.2942 892.67 13.7 891.264 13.7 889.53C13.7 887.796 12.2942 886.39 10.56 886.39C8.82582 886.39 7.42 887.796 7.42 889.53C7.42 891.264 8.82582 892.67 10.56 892.67Z" fill="#E8E8E8"/>
<path d="M382.44 1058.15C384.174 1058.15 385.58 1056.74 385.58 1055.01C385.58 1053.28 384.174 1051.87 382.44 1051.87C380.706 1051.87 379.3 1053.28 379.3 1055.01C379.3 1056.74 380.706 1058.15 382.44 1058.15Z" fill="#E8E8E8"/>
<path d="M258.48 1058.15C260.214 1058.15 261.62 1056.74 261.62 1055.01C261.62 1053.28 260.214 1051.87 258.48 1051.87C256.746 1051.87 255.34 1053.28 255.34 1055.01C255.34 1056.74 256.746 1058.15 258.48 1058.15Z" fill="#E8E8E8"/>
<path d="M134.52 1058.15C136.254 1058.15 137.66 1056.74 137.66 1055.01C137.66 1053.28 136.254 1051.87 134.52 1051.87C132.786 1051.87 131.38 1053.28 131.38 1055.01C131.38 1056.74 132.786 1058.15 134.52 1058.15Z" fill="#E8E8E8"/>
<path d="M10.56 1058.15C12.2942 1058.15 13.7 1056.74 13.7 1055.01C13.7 1053.28 12.2942 1051.87 10.56 1051.87C8.82582 1051.87 7.42 1053.28 7.42 1055.01C7.42 1056.74 8.82582 1058.15 10.56 1058.15Z" fill="#E8E8E8"/>
<path d="M382.44 1223.64C384.174 1223.64 385.58 1222.23 385.58 1220.5C385.58 1218.77 384.174 1217.36 382.44 1217.36C380.706 1217.36 379.3 1218.77 379.3 1220.5C379.3 1222.23 380.706 1223.64 382.44 1223.64Z" fill="#E8E8E8"/>
<path d="M258.48 1223.64C260.214 1223.64 261.62 1222.23 261.62 1220.5C261.62 1218.77 260.214 1217.36 258.48 1217.36C256.746 1217.36 255.34 1218.77 255.34 1220.5C255.34 1222.23 256.746 1223.64 258.48 1223.64Z" fill="#E8E8E8"/>
<path d="M134.52 1223.64C136.254 1223.64 137.66 1222.23 137.66 1220.5C137.66 1218.77 136.254 1217.36 134.52 1217.36C132.786 1217.36 131.38 1218.77 131.38 1220.5C131.38 1222.23 132.786 1223.64 134.52 1223.64Z" fill="#E8E8E8"/>
<path d="M10.56 1223.64C12.2942 1223.64 13.7 1222.23 13.7 1220.5C13.7 1218.77 12.2942 1217.36 10.56 1217.36C8.82582 1217.36 7.42 1218.77 7.42 1220.5C7.42 1222.23 8.82582 1223.64 10.56 1223.64Z" fill="#E8E8E8"/>
<path d="M382.44 1389.12C384.174 1389.12 385.58 1387.71 385.58 1385.98C385.58 1384.25 384.174 1382.84 382.44 1382.84C380.706 1382.84 379.3 1384.25 379.3 1385.98C379.3 1387.71 380.706 1389.12 382.44 1389.12Z" fill="#E8E8E8"/>
<path d="M258.48 1389.12C260.214 1389.12 261.62 1387.71 261.62 1385.98C261.62 1384.25 260.214 1382.84 258.48 1382.84C256.746 1382.84 255.34 1384.25 255.34 1385.98C255.34 1387.71 256.746 1389.12 258.48 1389.12Z" fill="#E8E8E8"/>
<path d="M134.52 1389.12C136.254 1389.12 137.66 1387.71 137.66 1385.98C137.66 1384.25 136.254 1382.84 134.52 1382.84C132.786 1382.84 131.38 1384.25 131.38 1385.98C131.38 1387.71 132.786 1389.12 134.52 1389.12Z" fill="#E8E8E8"/>
<path d="M10.56 1389.12C12.2942 1389.12 13.7 1387.71 13.7 1385.98C13.7 1384.25 12.2942 1382.84 10.56 1382.84C8.82582 1382.84 7.42 1384.25 7.42 1385.98C7.42 1387.71 8.82582 1389.12 10.56 1389.12Z" fill="#E8E8E8"/>
<path d="M382.44 1554.6C384.174 1554.6 385.58 1553.19 385.58 1551.46C385.58 1549.73 384.174 1548.32 382.44 1548.32C380.706 1548.32 379.3 1549.73 379.3 1551.46C379.3 1553.19 380.706 1554.6 382.44 1554.6Z" fill="#E8E8E8"/>
<path d="M258.48 1554.6C260.214 1554.6 261.62 1553.19 261.62 1551.46C261.62 1549.73 260.214 1548.32 258.48 1548.32C256.746 1548.32 255.34 1549.73 255.34 1551.46C255.34 1553.19 256.746 1554.6 258.48 1554.6Z" fill="#E8E8E8"/>
<path d="M134.52 1554.6C136.254 1554.6 137.66 1553.19 137.66 1551.46C137.66 1549.73 136.254 1548.32 134.52 1548.32C132.786 1548.32 131.38 1549.73 131.38 1551.46C131.38 1553.19 132.786 1554.6 134.52 1554.6Z" fill="#E8E8E8"/>
<path d="M10.56 1554.6C12.2942 1554.6 13.7 1553.19 13.7 1551.46C13.7 1549.73 12.2942 1548.32 10.56 1548.32C8.82582 1548.32 7.42 1549.73 7.42 1551.46C7.42 1553.19 8.82582 1554.6 10.56 1554.6Z" fill="#E8E8E8"/>
<path d="M382.44 1720.09C384.174 1720.09 385.58 1718.68 385.58 1716.95C385.58 1715.22 384.174 1713.81 382.44 1713.81C380.706 1713.81 379.3 1715.22 379.3 1716.95C379.3 1718.68 380.706 1720.09 382.44 1720.09Z" fill="#E8E8E8"/>
<path d="M258.48 1720.09C260.214 1720.09 261.62 1718.68 261.62 1716.95C261.62 1715.22 260.214 1713.81 258.48 1713.81C256.746 1713.81 255.34 1715.22 255.34 1716.95C255.34 1718.68 256.746 1720.09 258.48 1720.09Z" fill="#E8E8E8"/>
<path d="M134.52 1720.09C136.254 1720.09 137.66 1718.68 137.66 1716.95C137.66 1715.22 136.254 1713.81 134.52 1713.81C132.786 1713.81 131.38 1715.22 131.38 1716.95C131.38 1718.68 132.786 1720.09 134.52 1720.09Z" fill="#E8E8E8"/>
<path d="M10.56 1720.09C12.2942 1720.09 13.7 1718.68 13.7 1716.95C13.7 1715.22 12.2942 1713.81 10.56 1713.81C8.82582 1713.81 7.42 1715.22 7.42 1716.95C7.42 1718.68 8.82582 1720.09 10.56 1720.09Z" fill="#E8E8E8"/>
</g>
<defs>
<clipPath id="clip0_3065_25107">
<rect width="393" height="1790.72" fill="white"/>
</clipPath>
</defs>
</svg>
