<svg width="288" height="627" viewBox="0 0 288 627" fill="none" xmlns="http://www.w3.org/2000/svg">
<path d="M111.191 549.927V551H106.215V549.927H111.191ZM106.475 541.047V551H105.155V541.047H106.475ZM115.26 551.137C114.745 551.137 114.278 551.05 113.859 550.877C113.444 550.699 113.086 550.451 112.785 550.132C112.489 549.813 112.261 549.435 112.102 548.997C111.942 548.56 111.863 548.081 111.863 547.562V547.274C111.863 546.673 111.951 546.137 112.129 545.668C112.307 545.194 112.548 544.793 112.854 544.465C113.159 544.137 113.506 543.888 113.893 543.72C114.28 543.551 114.681 543.467 115.096 543.467C115.625 543.467 116.08 543.558 116.463 543.74C116.851 543.923 117.167 544.178 117.413 544.506C117.659 544.829 117.842 545.212 117.96 545.654C118.079 546.092 118.138 546.57 118.138 547.09V547.657H112.615V546.625H116.873V546.529C116.855 546.201 116.787 545.882 116.668 545.572C116.554 545.262 116.372 545.007 116.121 544.807C115.871 544.606 115.529 544.506 115.096 544.506C114.809 544.506 114.545 544.567 114.303 544.69C114.062 544.809 113.854 544.987 113.681 545.224C113.508 545.461 113.373 545.75 113.278 546.092C113.182 546.434 113.134 546.828 113.134 547.274V547.562C113.134 547.912 113.182 548.243 113.278 548.553C113.378 548.858 113.521 549.127 113.708 549.359C113.9 549.592 114.13 549.774 114.399 549.906C114.672 550.038 114.982 550.104 115.328 550.104C115.775 550.104 116.153 550.013 116.463 549.831C116.773 549.649 117.044 549.405 117.277 549.1L118.042 549.708C117.883 549.95 117.68 550.18 117.434 550.398C117.188 550.617 116.885 550.795 116.525 550.932C116.169 551.068 115.748 551.137 115.26 551.137ZM121.448 549.858L123.471 543.604H124.763L122.104 551H121.256L121.448 549.858ZM119.759 543.604L121.844 549.893L121.988 551H121.14L118.461 543.604H119.759ZM128.634 551.137C128.119 551.137 127.652 551.05 127.232 550.877C126.818 550.699 126.46 550.451 126.159 550.132C125.863 549.813 125.635 549.435 125.476 548.997C125.316 548.56 125.236 548.081 125.236 547.562V547.274C125.236 546.673 125.325 546.137 125.503 545.668C125.681 545.194 125.922 544.793 126.228 544.465C126.533 544.137 126.879 543.888 127.267 543.72C127.654 543.551 128.055 543.467 128.47 543.467C128.998 543.467 129.454 543.558 129.837 543.74C130.224 543.923 130.541 544.178 130.787 544.506C131.033 544.829 131.215 545.212 131.334 545.654C131.452 546.092 131.512 546.57 131.512 547.09V547.657H125.988V546.625H130.247V546.529C130.229 546.201 130.16 545.882 130.042 545.572C129.928 545.262 129.746 545.007 129.495 544.807C129.244 544.606 128.903 544.506 128.47 544.506C128.183 544.506 127.918 544.567 127.677 544.69C127.435 544.809 127.228 544.987 127.055 545.224C126.881 545.461 126.747 545.75 126.651 546.092C126.556 546.434 126.508 546.828 126.508 547.274V547.562C126.508 547.912 126.556 548.243 126.651 548.553C126.752 548.858 126.895 549.127 127.082 549.359C127.273 549.592 127.504 549.774 127.772 549.906C128.046 550.038 128.356 550.104 128.702 550.104C129.149 550.104 129.527 550.013 129.837 549.831C130.147 549.649 130.418 549.405 130.65 549.1L131.416 549.708C131.256 549.95 131.054 550.18 130.808 550.398C130.561 550.617 130.258 550.795 129.898 550.932C129.543 551.068 129.121 551.137 128.634 551.137ZM134.042 540.5V551H132.771V540.5H134.042ZM142.925 540.992V551H141.66V542.571L139.11 543.501V542.359L142.726 540.992H142.925Z" fill="#787878"/>
<path d="M109.312 574.224C107.925 574.224 106.827 573.84 106.016 573.072C105.205 572.293 104.8 571.184 104.8 569.744V567.056C104.8 565.616 105.205 564.512 106.016 563.744C106.827 562.965 107.925 562.576 109.312 562.576C110.688 562.576 111.749 562.955 112.496 563.712C113.253 564.459 113.632 565.488 113.632 566.8V566.896H111.552V566.736C111.552 566.075 111.365 565.531 110.992 565.104C110.629 564.677 110.069 564.464 109.312 564.464C108.565 564.464 107.979 564.693 107.552 565.152C107.125 565.611 106.912 566.235 106.912 567.024V569.776C106.912 570.555 107.125 571.179 107.552 571.648C107.979 572.107 108.565 572.336 109.312 572.336C110.069 572.336 110.629 572.123 110.992 571.696C111.365 571.259 111.552 570.715 111.552 570.064V569.776H113.632V570C113.632 571.312 113.253 572.347 112.496 573.104C111.749 573.851 110.688 574.224 109.312 574.224ZM118.873 574.224C118.084 574.224 117.374 574.064 116.745 573.744C116.116 573.424 115.62 572.96 115.257 572.352C114.894 571.744 114.713 571.013 114.713 570.16V569.904C114.713 569.051 114.894 568.32 115.257 567.712C115.62 567.104 116.116 566.64 116.745 566.32C117.374 566 118.084 565.84 118.873 565.84C119.662 565.84 120.372 566 121.001 566.32C121.63 566.64 122.126 567.104 122.489 567.712C122.852 568.32 123.033 569.051 123.033 569.904V570.16C123.033 571.013 122.852 571.744 122.489 572.352C122.126 572.96 121.63 573.424 121.001 573.744C120.372 574.064 119.662 574.224 118.873 574.224ZM118.873 572.432C119.492 572.432 120.004 572.235 120.409 571.84C120.814 571.435 121.017 570.859 121.017 570.112V569.952C121.017 569.205 120.814 568.635 120.409 568.24C120.014 567.835 119.502 567.632 118.873 567.632C118.254 567.632 117.742 567.835 117.337 568.24C116.932 568.635 116.729 569.205 116.729 569.952V570.112C116.729 570.859 116.932 571.435 117.337 571.84C117.742 572.235 118.254 572.432 118.873 572.432ZM124.574 574V566.064H126.558V566.928H126.846C126.984 566.661 127.214 566.432 127.534 566.24C127.854 566.037 128.275 565.936 128.798 565.936C129.363 565.936 129.816 566.048 130.158 566.272C130.499 566.485 130.76 566.768 130.942 567.12H131.23C131.411 566.779 131.667 566.496 131.998 566.272C132.328 566.048 132.798 565.936 133.406 565.936C133.896 565.936 134.339 566.043 134.734 566.256C135.139 566.459 135.459 566.773 135.694 567.2C135.939 567.616 136.062 568.144 136.062 568.784V574H134.046V568.928C134.046 568.491 133.934 568.165 133.71 567.952C133.486 567.728 133.171 567.616 132.766 567.616C132.307 567.616 131.95 567.765 131.694 568.064C131.448 568.352 131.326 568.768 131.326 569.312V574H129.31V568.928C129.31 568.491 129.198 568.165 128.974 567.952C128.75 567.728 128.435 567.616 128.03 567.616C127.571 567.616 127.214 567.765 126.958 568.064C126.712 568.352 126.59 568.768 126.59 569.312V574H124.574ZM137.91 577.2V566.064H139.894V567.024H140.182C140.363 566.715 140.646 566.443 141.03 566.208C141.414 565.963 141.963 565.84 142.678 565.84C143.318 565.84 143.91 566 144.454 566.32C144.998 566.629 145.435 567.088 145.766 567.696C146.097 568.304 146.262 569.04 146.262 569.904V570.16C146.262 571.024 146.097 571.76 145.766 572.368C145.435 572.976 144.998 573.44 144.454 573.76C143.91 574.069 143.318 574.224 142.678 574.224C142.198 574.224 141.793 574.165 141.462 574.048C141.142 573.941 140.881 573.803 140.678 573.632C140.486 573.451 140.331 573.269 140.214 573.088H139.926V577.2H137.91ZM142.07 572.464C142.699 572.464 143.217 572.267 143.622 571.872C144.038 571.467 144.246 570.88 144.246 570.112V569.952C144.246 569.184 144.038 568.603 143.622 568.208C143.206 567.803 142.689 567.6 142.07 567.6C141.451 567.6 140.934 567.803 140.518 568.208C140.102 568.603 139.894 569.184 139.894 569.952V570.112C139.894 570.88 140.102 571.467 140.518 571.872C140.934 572.267 141.451 572.464 142.07 572.464ZM147.793 574V562.8H149.809V574H147.793ZM155.339 574.224C154.55 574.224 153.851 574.059 153.243 573.728C152.646 573.387 152.176 572.912 151.835 572.304C151.504 571.685 151.339 570.96 151.339 570.128V569.936C151.339 569.104 151.504 568.384 151.835 567.776C152.166 567.157 152.63 566.683 153.227 566.352C153.824 566.011 154.518 565.84 155.307 565.84C156.086 565.84 156.763 566.016 157.339 566.368C157.915 566.709 158.363 567.189 158.683 567.808C159.003 568.416 159.163 569.125 159.163 569.936V570.624H153.387C153.408 571.168 153.611 571.611 153.995 571.952C154.379 572.293 154.848 572.464 155.403 572.464C155.968 572.464 156.384 572.341 156.651 572.096C156.918 571.851 157.12 571.579 157.259 571.28L158.907 572.144C158.758 572.421 158.539 572.725 158.251 573.056C157.974 573.376 157.6 573.653 157.131 573.888C156.662 574.112 156.064 574.224 155.339 574.224ZM153.403 569.12H157.115C157.072 568.661 156.886 568.293 156.555 568.016C156.235 567.739 155.814 567.6 155.291 567.6C154.747 567.6 154.315 567.739 153.995 568.016C153.675 568.293 153.478 568.661 153.403 569.12ZM163.428 574C162.905 574 162.478 573.84 162.148 573.52C161.828 573.189 161.668 572.752 161.668 572.208V567.728H159.684V566.064H161.668V563.6H163.684V566.064H165.86V567.728H163.684V571.856C163.684 572.176 163.833 572.336 164.132 572.336H165.668V574H163.428ZM170.699 574.224C169.91 574.224 169.211 574.059 168.603 573.728C168.006 573.387 167.536 572.912 167.195 572.304C166.864 571.685 166.699 570.96 166.699 570.128V569.936C166.699 569.104 166.864 568.384 167.195 567.776C167.526 567.157 167.99 566.683 168.587 566.352C169.184 566.011 169.878 565.84 170.667 565.84C171.446 565.84 172.123 566.016 172.699 566.368C173.275 566.709 173.723 567.189 174.043 567.808C174.363 568.416 174.523 569.125 174.523 569.936V570.624H168.747C168.768 571.168 168.971 571.611 169.355 571.952C169.739 572.293 170.208 572.464 170.763 572.464C171.328 572.464 171.744 572.341 172.011 572.096C172.278 571.851 172.48 571.579 172.619 571.28L174.267 572.144C174.118 572.421 173.899 572.725 173.611 573.056C173.334 573.376 172.96 573.653 172.491 573.888C172.022 574.112 171.424 574.224 170.699 574.224ZM168.763 569.12H172.475C172.432 568.661 172.246 568.293 171.915 568.016C171.595 567.739 171.174 567.6 170.651 567.6C170.107 567.6 169.675 567.739 169.355 568.016C169.035 568.293 168.838 568.661 168.763 569.12ZM179.198 574.224C178.568 574.224 177.976 574.069 177.422 573.76C176.878 573.44 176.44 572.976 176.11 572.368C175.779 571.76 175.614 571.024 175.614 570.16V569.904C175.614 569.04 175.779 568.304 176.11 567.696C176.44 567.088 176.878 566.629 177.422 566.32C177.966 566 178.558 565.84 179.198 565.84C179.678 565.84 180.078 565.899 180.398 566.016C180.728 566.123 180.995 566.261 181.198 566.432C181.4 566.603 181.555 566.784 181.662 566.976H181.95V562.8H183.966V574H181.982V573.04H181.694C181.512 573.339 181.23 573.611 180.846 573.856C180.472 574.101 179.923 574.224 179.198 574.224ZM179.806 572.464C180.424 572.464 180.942 572.267 181.358 571.872C181.774 571.467 181.982 570.88 181.982 570.112V569.952C181.982 569.184 181.774 568.603 181.358 568.208C180.952 567.803 180.435 567.6 179.806 567.6C179.187 567.6 178.67 567.803 178.254 568.208C177.838 568.603 177.63 569.184 177.63 569.952V570.112C177.63 570.88 177.838 571.467 178.254 571.872C178.67 572.267 179.187 572.464 179.806 572.464Z" fill="#323232"/>
<path d="M111.191 295.927V297H106.215V295.927H111.191ZM106.475 287.047V297H105.155V287.047H106.475ZM115.26 297.137C114.745 297.137 114.278 297.05 113.859 296.877C113.444 296.699 113.086 296.451 112.785 296.132C112.489 295.813 112.261 295.435 112.102 294.997C111.942 294.56 111.863 294.081 111.863 293.562V293.274C111.863 292.673 111.951 292.137 112.129 291.668C112.307 291.194 112.548 290.793 112.854 290.465C113.159 290.137 113.506 289.888 113.893 289.72C114.28 289.551 114.681 289.467 115.096 289.467C115.625 289.467 116.08 289.558 116.463 289.74C116.851 289.923 117.167 290.178 117.413 290.506C117.659 290.829 117.842 291.212 117.96 291.654C118.079 292.092 118.138 292.57 118.138 293.09V293.657H112.615V292.625H116.873V292.529C116.855 292.201 116.787 291.882 116.668 291.572C116.554 291.262 116.372 291.007 116.121 290.807C115.871 290.606 115.529 290.506 115.096 290.506C114.809 290.506 114.545 290.567 114.303 290.69C114.062 290.809 113.854 290.987 113.681 291.224C113.508 291.461 113.373 291.75 113.278 292.092C113.182 292.434 113.134 292.828 113.134 293.274V293.562C113.134 293.912 113.182 294.243 113.278 294.553C113.378 294.858 113.521 295.127 113.708 295.359C113.9 295.592 114.13 295.774 114.399 295.906C114.672 296.038 114.982 296.104 115.328 296.104C115.775 296.104 116.153 296.013 116.463 295.831C116.773 295.649 117.044 295.405 117.277 295.1L118.042 295.708C117.883 295.95 117.68 296.18 117.434 296.398C117.188 296.617 116.885 296.795 116.525 296.932C116.169 297.068 115.748 297.137 115.26 297.137ZM121.448 295.858L123.471 289.604H124.763L122.104 297H121.256L121.448 295.858ZM119.759 289.604L121.844 295.893L121.988 297H121.14L118.461 289.604H119.759ZM128.634 297.137C128.119 297.137 127.652 297.05 127.232 296.877C126.818 296.699 126.46 296.451 126.159 296.132C125.863 295.813 125.635 295.435 125.476 294.997C125.316 294.56 125.236 294.081 125.236 293.562V293.274C125.236 292.673 125.325 292.137 125.503 291.668C125.681 291.194 125.922 290.793 126.228 290.465C126.533 290.137 126.879 289.888 127.267 289.72C127.654 289.551 128.055 289.467 128.47 289.467C128.998 289.467 129.454 289.558 129.837 289.74C130.224 289.923 130.541 290.178 130.787 290.506C131.033 290.829 131.215 291.212 131.334 291.654C131.452 292.092 131.512 292.57 131.512 293.09V293.657H125.988V292.625H130.247V292.529C130.229 292.201 130.16 291.882 130.042 291.572C129.928 291.262 129.746 291.007 129.495 290.807C129.244 290.606 128.903 290.506 128.47 290.506C128.183 290.506 127.918 290.567 127.677 290.69C127.435 290.809 127.228 290.987 127.055 291.224C126.881 291.461 126.747 291.75 126.651 292.092C126.556 292.434 126.508 292.828 126.508 293.274V293.562C126.508 293.912 126.556 294.243 126.651 294.553C126.752 294.858 126.895 295.127 127.082 295.359C127.273 295.592 127.504 295.774 127.772 295.906C128.046 296.038 128.356 296.104 128.702 296.104C129.149 296.104 129.527 296.013 129.837 295.831C130.147 295.649 130.418 295.405 130.65 295.1L131.416 295.708C131.256 295.95 131.054 296.18 130.808 296.398C130.561 296.617 130.258 296.795 129.898 296.932C129.543 297.068 129.121 297.137 128.634 297.137ZM134.042 286.5V297H132.771V286.5H134.042ZM140.614 291.401H141.517C141.959 291.401 142.323 291.328 142.61 291.183C142.902 291.032 143.118 290.829 143.26 290.574C143.406 290.314 143.478 290.023 143.478 289.699C143.478 289.316 143.415 288.995 143.287 288.735C143.159 288.476 142.968 288.28 142.713 288.147C142.458 288.015 142.134 287.949 141.742 287.949C141.387 287.949 141.072 288.02 140.799 288.161C140.53 288.298 140.318 288.494 140.163 288.749C140.013 289.004 139.937 289.305 139.937 289.651H138.673C138.673 289.146 138.8 288.685 139.056 288.271C139.311 287.856 139.669 287.525 140.129 287.279C140.594 287.033 141.131 286.91 141.742 286.91C142.344 286.91 142.87 287.017 143.321 287.231C143.772 287.441 144.123 287.756 144.374 288.175C144.625 288.59 144.75 289.107 144.75 289.727C144.75 289.977 144.691 290.246 144.572 290.533C144.458 290.816 144.278 291.08 144.032 291.326C143.791 291.572 143.476 291.775 143.089 291.935C142.701 292.09 142.237 292.167 141.694 292.167H140.614V291.401ZM140.614 292.44V291.682H141.694C142.328 291.682 142.852 291.757 143.267 291.907C143.681 292.058 144.007 292.258 144.244 292.509C144.486 292.759 144.654 293.035 144.75 293.336C144.85 293.632 144.9 293.928 144.9 294.225C144.9 294.689 144.821 295.102 144.661 295.462C144.506 295.822 144.285 296.127 143.998 296.378C143.715 296.629 143.383 296.818 143 296.945C142.617 297.073 142.2 297.137 141.749 297.137C141.316 297.137 140.908 297.075 140.525 296.952C140.147 296.829 139.812 296.651 139.52 296.419C139.229 296.182 139.001 295.893 138.837 295.551C138.673 295.204 138.591 294.81 138.591 294.368H139.855C139.855 294.715 139.931 295.018 140.081 295.277C140.236 295.537 140.455 295.74 140.737 295.886C141.024 296.027 141.362 296.098 141.749 296.098C142.136 296.098 142.469 296.032 142.747 295.899C143.03 295.763 143.246 295.558 143.396 295.284C143.551 295.011 143.629 294.667 143.629 294.252C143.629 293.837 143.542 293.498 143.369 293.233C143.196 292.965 142.95 292.766 142.631 292.639C142.316 292.507 141.945 292.44 141.517 292.44H140.614Z" fill="#787878"/>
<path d="M105.056 320V308.8H107.168V318.08H112.288V320H105.056ZM117.248 320.224C116.459 320.224 115.749 320.064 115.12 319.744C114.491 319.424 113.995 318.96 113.632 318.352C113.269 317.744 113.088 317.013 113.088 316.16V315.904C113.088 315.051 113.269 314.32 113.632 313.712C113.995 313.104 114.491 312.64 115.12 312.32C115.749 312 116.459 311.84 117.248 311.84C118.037 311.84 118.747 312 119.376 312.32C120.005 312.64 120.501 313.104 120.864 313.712C121.227 314.32 121.408 315.051 121.408 315.904V316.16C121.408 317.013 121.227 317.744 120.864 318.352C120.501 318.96 120.005 319.424 119.376 319.744C118.747 320.064 118.037 320.224 117.248 320.224ZM117.248 318.432C117.867 318.432 118.379 318.235 118.784 317.84C119.189 317.435 119.392 316.859 119.392 316.112V315.952C119.392 315.205 119.189 314.635 118.784 314.24C118.389 313.835 117.877 313.632 117.248 313.632C116.629 313.632 116.117 313.835 115.712 314.24C115.307 314.635 115.104 315.205 115.104 315.952V316.112C115.104 316.859 115.307 317.435 115.712 317.84C116.117 318.235 116.629 318.432 117.248 318.432ZM126.677 320.224C125.909 320.224 125.21 320.064 124.581 319.744C123.962 319.424 123.471 318.96 123.109 318.352C122.746 317.744 122.565 317.008 122.565 316.144V315.92C122.565 315.056 122.746 314.32 123.109 313.712C123.471 313.104 123.962 312.64 124.581 312.32C125.21 312 125.909 311.84 126.677 311.84C127.434 311.84 128.085 311.973 128.629 312.24C129.173 312.507 129.61 312.875 129.941 313.344C130.282 313.803 130.506 314.325 130.613 314.912L128.661 315.328C128.618 315.008 128.522 314.72 128.373 314.464C128.223 314.208 128.01 314.005 127.733 313.856C127.466 313.707 127.13 313.632 126.725 313.632C126.319 313.632 125.951 313.723 125.621 313.904C125.301 314.075 125.045 314.336 124.853 314.688C124.671 315.029 124.581 315.451 124.581 315.952V316.112C124.581 316.613 124.671 317.04 124.853 317.392C125.045 317.733 125.301 317.995 125.621 318.176C125.951 318.347 126.319 318.432 126.725 318.432C127.333 318.432 127.791 318.277 128.101 317.968C128.421 317.648 128.623 317.232 128.709 316.72L130.661 317.184C130.522 317.749 130.282 318.267 129.941 318.736C129.61 319.195 129.173 319.557 128.629 319.824C128.085 320.091 127.434 320.224 126.677 320.224ZM132.004 320V308.8H134.02V314.992H134.308L136.932 312.064H139.556L135.892 315.904L139.684 320H137.092L134.308 316.848H134.02V320H132.004ZM143.847 320.224C143.057 320.224 142.359 320.059 141.751 319.728C141.153 319.387 140.684 318.912 140.343 318.304C140.012 317.685 139.847 316.96 139.847 316.128V315.936C139.847 315.104 140.012 314.384 140.343 313.776C140.673 313.157 141.137 312.683 141.735 312.352C142.332 312.011 143.025 311.84 143.815 311.84C144.593 311.84 145.271 312.016 145.847 312.368C146.423 312.709 146.871 313.189 147.191 313.808C147.511 314.416 147.671 315.125 147.671 315.936V316.624H141.895C141.916 317.168 142.119 317.611 142.503 317.952C142.887 318.293 143.356 318.464 143.911 318.464C144.476 318.464 144.892 318.341 145.159 318.096C145.425 317.851 145.628 317.579 145.767 317.28L147.415 318.144C147.265 318.421 147.047 318.725 146.759 319.056C146.481 319.376 146.108 319.653 145.639 319.888C145.169 320.112 144.572 320.224 143.847 320.224ZM141.911 315.12H145.623C145.58 314.661 145.393 314.293 145.063 314.016C144.743 313.739 144.321 313.6 143.799 313.6C143.255 313.6 142.823 313.739 142.503 314.016C142.183 314.293 141.985 314.661 141.911 315.12ZM152.345 320.224C151.716 320.224 151.124 320.069 150.569 319.76C150.025 319.44 149.588 318.976 149.257 318.368C148.926 317.76 148.761 317.024 148.761 316.16V315.904C148.761 315.04 148.926 314.304 149.257 313.696C149.588 313.088 150.025 312.629 150.569 312.32C151.113 312 151.705 311.84 152.345 311.84C152.825 311.84 153.225 311.899 153.545 312.016C153.876 312.123 154.142 312.261 154.345 312.432C154.548 312.603 154.702 312.784 154.809 312.976H155.097V308.8H157.113V320H155.129V319.04H154.841C154.66 319.339 154.377 319.611 153.993 319.856C153.62 320.101 153.07 320.224 152.345 320.224ZM152.953 318.464C153.572 318.464 154.089 318.267 154.505 317.872C154.921 317.467 155.129 316.88 155.129 316.112V315.952C155.129 315.184 154.921 314.603 154.505 314.208C154.1 313.803 153.582 313.6 152.953 313.6C152.334 313.6 151.817 313.803 151.401 314.208C150.985 314.603 150.777 315.184 150.777 315.952V316.112C150.777 316.88 150.985 317.467 151.401 317.872C151.817 318.267 152.334 318.464 152.953 318.464Z" fill="#323232"/>
<path d="M72.1914 422.927V424H67.2148V422.927H72.1914ZM67.4746 414.047V424H66.1553V414.047H67.4746ZM76.2601 424.137C75.7451 424.137 75.278 424.05 74.8587 423.877C74.444 423.699 74.0862 423.451 73.7855 423.132C73.4892 422.813 73.2614 422.435 73.1019 421.997C72.9424 421.56 72.8626 421.081 72.8626 420.562V420.274C72.8626 419.673 72.9515 419.137 73.1292 418.668C73.307 418.194 73.5485 417.793 73.8538 417.465C74.1592 417.137 74.5055 416.888 74.8929 416.72C75.2803 416.551 75.6813 416.467 76.096 416.467C76.6247 416.467 77.0804 416.558 77.4632 416.74C77.8506 416.923 78.1673 417.178 78.4134 417.506C78.6595 417.829 78.8418 418.212 78.9603 418.654C79.0788 419.092 79.138 419.57 79.138 420.09V420.657H73.6146V419.625H77.8734V419.529C77.8551 419.201 77.7868 418.882 77.6683 418.572C77.5543 418.262 77.3721 418.007 77.1214 417.807C76.8708 417.606 76.529 417.506 76.096 417.506C75.8089 417.506 75.5446 417.567 75.303 417.69C75.0615 417.809 74.8542 417.987 74.681 418.224C74.5078 418.461 74.3734 418.75 74.2777 419.092C74.182 419.434 74.1341 419.828 74.1341 420.274V420.562C74.1341 420.912 74.182 421.243 74.2777 421.553C74.3779 421.858 74.5215 422.127 74.7083 422.359C74.8997 422.592 75.1299 422.774 75.3987 422.906C75.6722 423.038 75.9821 423.104 76.3284 423.104C76.7751 423.104 77.1533 423.013 77.4632 422.831C77.7731 422.649 78.0443 422.405 78.2767 422.1L79.0423 422.708C78.8828 422.95 78.68 423.18 78.4339 423.398C78.1878 423.617 77.8848 423.795 77.5247 423.932C77.1693 424.068 76.7477 424.137 76.2601 424.137ZM82.4479 422.858L84.4713 416.604H85.7633L83.1041 424H82.2565L82.4479 422.858ZM80.7594 416.604L82.8444 422.893L82.9879 424H82.1403L79.4606 416.604H80.7594ZM89.6338 424.137C89.1188 424.137 88.6517 424.05 88.2324 423.877C87.8177 423.699 87.4599 423.451 87.1591 423.132C86.8629 422.813 86.6351 422.435 86.4755 421.997C86.316 421.56 86.2363 421.081 86.2363 420.562V420.274C86.2363 419.673 86.3252 419.137 86.5029 418.668C86.6806 418.194 86.9222 417.793 87.2275 417.465C87.5328 417.137 87.8792 416.888 88.2666 416.72C88.6539 416.551 89.055 416.467 89.4697 416.467C89.9983 416.467 90.4541 416.558 90.8369 416.74C91.2242 416.923 91.541 417.178 91.7871 417.506C92.0332 417.829 92.2155 418.212 92.3339 418.654C92.4524 419.092 92.5117 419.57 92.5117 420.09V420.657H86.9882V419.625H91.247V419.529C91.2288 419.201 91.1604 418.882 91.042 418.572C90.928 418.262 90.7457 418.007 90.4951 417.807C90.2444 417.606 89.9026 417.506 89.4697 417.506C89.1826 417.506 88.9183 417.567 88.6767 417.69C88.4352 417.809 88.2278 417.987 88.0546 418.224C87.8815 418.461 87.747 418.75 87.6513 419.092C87.5556 419.434 87.5078 419.828 87.5078 420.274V420.562C87.5078 420.912 87.5556 421.243 87.6513 421.553C87.7516 421.858 87.8951 422.127 88.082 422.359C88.2734 422.592 88.5035 422.774 88.7724 422.906C89.0459 423.038 89.3558 423.104 89.7021 423.104C90.1487 423.104 90.527 423.013 90.8369 422.831C91.1468 422.649 91.4179 422.405 91.6504 422.1L92.416 422.708C92.2565 422.95 92.0537 423.18 91.8076 423.398C91.5615 423.617 91.2584 423.795 90.8984 423.932C90.5429 424.068 90.1214 424.137 89.6338 424.137ZM95.0423 413.5V424H93.7708V413.5H95.0423ZM106.29 422.961V424H99.7753V423.091L103.036 419.461C103.437 419.014 103.747 418.636 103.966 418.326C104.189 418.012 104.344 417.731 104.431 417.485C104.522 417.235 104.567 416.979 104.567 416.72C104.567 416.392 104.499 416.095 104.362 415.831C104.23 415.562 104.034 415.348 103.774 415.188C103.515 415.029 103.2 414.949 102.831 414.949C102.389 414.949 102.02 415.036 101.724 415.209C101.432 415.378 101.213 415.615 101.067 415.92C100.921 416.225 100.849 416.576 100.849 416.973H99.5839C99.5839 416.412 99.707 415.899 99.953 415.435C100.199 414.97 100.564 414.601 101.047 414.327C101.53 414.049 102.125 413.91 102.831 413.91C103.46 413.91 103.998 414.022 104.444 414.245C104.891 414.464 105.233 414.774 105.47 415.175C105.711 415.571 105.832 416.036 105.832 416.569C105.832 416.861 105.782 417.157 105.682 417.458C105.586 417.754 105.451 418.05 105.278 418.347C105.11 418.643 104.911 418.935 104.684 419.222C104.46 419.509 104.221 419.791 103.966 420.069L101.3 422.961H106.29Z" fill="#787878"/>
<path d="M66.056 447V435.8H68.168V447H66.056ZM70.0188 447V439.064H72.0028V440.104H72.2908C72.4188 439.827 72.6588 439.565 73.0108 439.32C73.3628 439.064 73.8961 438.936 74.6108 438.936C75.2294 438.936 75.7681 439.08 76.2268 439.368C76.6961 439.645 77.0588 440.035 77.3148 440.536C77.5708 441.027 77.6988 441.603 77.6988 442.264V447H75.6828V442.424C75.6828 441.827 75.5334 441.379 75.2348 441.08C74.9468 440.781 74.5308 440.632 73.9868 440.632C73.3681 440.632 72.8881 440.84 72.5468 441.256C72.2054 441.661 72.0348 442.232 72.0348 442.968V447H70.0188ZM79.5261 443.832V442.008H84.2621V443.832H79.5261ZM86.0804 447V435.8H90.6884C91.3924 435.8 92.011 435.944 92.5444 436.232C93.0884 436.509 93.5097 436.904 93.8084 437.416C94.1177 437.928 94.2724 438.536 94.2724 439.24V439.464C94.2724 440.157 94.1124 440.765 93.7924 441.288C93.483 441.8 93.0564 442.2 92.5124 442.488C91.979 442.765 91.371 442.904 90.6884 442.904H88.1924V447H86.0804ZM88.1924 440.984H90.4804C90.9817 440.984 91.387 440.845 91.6964 440.568C92.0057 440.291 92.1604 439.912 92.1604 439.432V439.272C92.1604 438.792 92.0057 438.413 91.6964 438.136C91.387 437.859 90.9817 437.72 90.4804 437.72H88.1924V440.984ZM95.4806 447V439.064H97.4646V439.96H97.7526C97.87 439.64 98.062 439.405 98.3286 439.256C98.606 439.107 98.926 439.032 99.2886 439.032H100.249V440.824H99.2566C98.7446 440.824 98.3233 440.963 97.9926 441.24C97.662 441.507 97.4966 441.923 97.4966 442.488V447H95.4806ZM104.999 447.224C104.21 447.224 103.5 447.064 102.871 446.744C102.242 446.424 101.746 445.96 101.383 445.352C101.02 444.744 100.839 444.013 100.839 443.16V442.904C100.839 442.051 101.02 441.32 101.383 440.712C101.746 440.104 102.242 439.64 102.871 439.32C103.5 439 104.21 438.84 104.999 438.84C105.788 438.84 106.498 439 107.127 439.32C107.756 439.64 108.252 440.104 108.615 440.712C108.978 441.32 109.159 442.051 109.159 442.904V443.16C109.159 444.013 108.978 444.744 108.615 445.352C108.252 445.96 107.756 446.424 107.127 446.744C106.498 447.064 105.788 447.224 104.999 447.224ZM104.999 445.432C105.618 445.432 106.13 445.235 106.535 444.84C106.94 444.435 107.143 443.859 107.143 443.112V442.952C107.143 442.205 106.94 441.635 106.535 441.24C106.14 440.835 105.628 440.632 104.999 440.632C104.38 440.632 103.868 440.835 103.463 441.24C103.058 441.635 102.855 442.205 102.855 442.952V443.112C102.855 443.859 103.058 444.435 103.463 444.84C103.868 445.235 104.38 445.432 104.999 445.432ZM110.316 443.064V442.808C110.316 441.976 110.481 441.267 110.812 440.68C111.143 440.083 111.58 439.629 112.124 439.32C112.679 439 113.281 438.84 113.932 438.84C114.657 438.84 115.207 438.968 115.58 439.224C115.953 439.48 116.225 439.747 116.396 440.024H116.684V439.064H118.668V448.408C118.668 448.952 118.508 449.384 118.188 449.704C117.868 450.035 117.441 450.2 116.908 450.2H111.596V448.44H116.204C116.503 448.44 116.652 448.28 116.652 447.96V445.896H116.364C116.257 446.067 116.108 446.243 115.916 446.424C115.724 446.595 115.468 446.739 115.148 446.856C114.828 446.973 114.423 447.032 113.932 447.032C113.281 447.032 112.679 446.877 112.124 446.568C111.58 446.248 111.143 445.795 110.812 445.208C110.481 444.611 110.316 443.896 110.316 443.064ZM114.508 445.272C115.127 445.272 115.644 445.075 116.06 444.68C116.476 444.285 116.684 443.731 116.684 443.016V442.856C116.684 442.131 116.476 441.576 116.06 441.192C115.655 440.797 115.137 440.6 114.508 440.6C113.889 440.6 113.372 440.797 112.956 441.192C112.54 441.576 112.332 442.131 112.332 442.856V443.016C112.332 443.731 112.54 444.285 112.956 444.68C113.372 445.075 113.889 445.272 114.508 445.272ZM120.583 447V439.064H122.567V439.96H122.855C122.972 439.64 123.164 439.405 123.431 439.256C123.708 439.107 124.028 439.032 124.391 439.032H125.351V440.824H124.359C123.847 440.824 123.426 440.963 123.095 441.24C122.764 441.507 122.599 441.923 122.599 442.488V447H120.583ZM129.942 447.224C129.152 447.224 128.454 447.059 127.846 446.728C127.248 446.387 126.779 445.912 126.438 445.304C126.107 444.685 125.942 443.96 125.942 443.128V442.936C125.942 442.104 126.107 441.384 126.438 440.776C126.768 440.157 127.232 439.683 127.83 439.352C128.427 439.011 129.12 438.84 129.91 438.84C130.688 438.84 131.366 439.016 131.942 439.368C132.518 439.709 132.966 440.189 133.286 440.808C133.606 441.416 133.766 442.125 133.766 442.936V443.624H127.99C128.011 444.168 128.214 444.611 128.598 444.952C128.982 445.293 129.451 445.464 130.006 445.464C130.571 445.464 130.987 445.341 131.254 445.096C131.52 444.851 131.723 444.579 131.862 444.28L133.51 445.144C133.36 445.421 133.142 445.725 132.854 446.056C132.576 446.376 132.203 446.653 131.734 446.888C131.264 447.112 130.667 447.224 129.942 447.224ZM128.006 442.12H131.718C131.675 441.661 131.488 441.293 131.158 441.016C130.838 440.739 130.416 440.6 129.894 440.6C129.35 440.6 128.918 440.739 128.598 441.016C128.278 441.293 128.08 441.661 128.006 442.12ZM138.536 447.224C137.501 447.224 136.653 447 135.992 446.552C135.331 446.104 134.931 445.464 134.792 444.632L136.648 444.152C136.723 444.525 136.845 444.819 137.016 445.032C137.197 445.245 137.416 445.4 137.672 445.496C137.939 445.581 138.227 445.624 138.536 445.624C139.005 445.624 139.352 445.544 139.576 445.384C139.8 445.213 139.912 445.005 139.912 444.76C139.912 444.515 139.805 444.328 139.592 444.2C139.379 444.061 139.037 443.949 138.568 443.864L138.12 443.784C137.565 443.677 137.059 443.533 136.6 443.352C136.141 443.16 135.773 442.899 135.496 442.568C135.219 442.237 135.08 441.811 135.08 441.288C135.08 440.499 135.368 439.896 135.944 439.48C136.52 439.053 137.277 438.84 138.216 438.84C139.101 438.84 139.837 439.037 140.424 439.432C141.011 439.827 141.395 440.344 141.576 440.984L139.704 441.56C139.619 441.155 139.443 440.867 139.176 440.696C138.92 440.525 138.6 440.44 138.216 440.44C137.832 440.44 137.539 440.509 137.336 440.648C137.133 440.776 137.032 440.957 137.032 441.192C137.032 441.448 137.139 441.64 137.352 441.768C137.565 441.885 137.853 441.976 138.216 442.04L138.664 442.12C139.261 442.227 139.8 442.371 140.28 442.552C140.771 442.723 141.155 442.973 141.432 443.304C141.72 443.624 141.864 444.061 141.864 444.616C141.864 445.448 141.56 446.093 140.952 446.552C140.355 447 139.549 447.224 138.536 447.224ZM146.607 447.224C145.572 447.224 144.724 447 144.063 446.552C143.401 446.104 143.001 445.464 142.863 444.632L144.719 444.152C144.793 444.525 144.916 444.819 145.087 445.032C145.268 445.245 145.487 445.4 145.743 445.496C146.009 445.581 146.297 445.624 146.607 445.624C147.076 445.624 147.423 445.544 147.647 445.384C147.871 445.213 147.983 445.005 147.983 444.76C147.983 444.515 147.876 444.328 147.663 444.2C147.449 444.061 147.108 443.949 146.639 443.864L146.191 443.784C145.636 443.677 145.129 443.533 144.671 443.352C144.212 443.16 143.844 442.899 143.567 442.568C143.289 442.237 143.151 441.811 143.151 441.288C143.151 440.499 143.439 439.896 144.015 439.48C144.591 439.053 145.348 438.84 146.287 438.84C147.172 438.84 147.908 439.037 148.495 439.432C149.081 439.827 149.465 440.344 149.647 440.984L147.775 441.56C147.689 441.155 147.513 440.867 147.247 440.696C146.991 440.525 146.671 440.44 146.287 440.44C145.903 440.44 145.609 440.509 145.407 440.648C145.204 440.776 145.103 440.957 145.103 441.192C145.103 441.448 145.209 441.64 145.423 441.768C145.636 441.885 145.924 441.976 146.287 442.04L146.735 442.12C147.332 442.227 147.871 442.371 148.351 442.552C148.841 442.723 149.225 442.973 149.503 443.304C149.791 443.624 149.935 444.061 149.935 444.616C149.935 445.448 149.631 446.093 149.023 446.552C148.425 447 147.62 447.224 146.607 447.224Z" fill="#323232"/>
<path d="M72.1914 167.927V169H67.2148V167.927H72.1914ZM67.4746 159.047V169H66.1553V159.047H67.4746ZM76.2601 169.137C75.7451 169.137 75.278 169.05 74.8587 168.877C74.444 168.699 74.0862 168.451 73.7855 168.132C73.4892 167.813 73.2614 167.435 73.1019 166.997C72.9424 166.56 72.8626 166.081 72.8626 165.562V165.274C72.8626 164.673 72.9515 164.137 73.1292 163.668C73.307 163.194 73.5485 162.793 73.8538 162.465C74.1592 162.137 74.5055 161.888 74.8929 161.72C75.2803 161.551 75.6813 161.467 76.096 161.467C76.6247 161.467 77.0804 161.558 77.4632 161.74C77.8506 161.923 78.1673 162.178 78.4134 162.506C78.6595 162.829 78.8418 163.212 78.9603 163.654C79.0788 164.092 79.138 164.57 79.138 165.09V165.657H73.6146V164.625H77.8734V164.529C77.8551 164.201 77.7868 163.882 77.6683 163.572C77.5543 163.262 77.3721 163.007 77.1214 162.807C76.8708 162.606 76.529 162.506 76.096 162.506C75.8089 162.506 75.5446 162.567 75.303 162.69C75.0615 162.809 74.8542 162.987 74.681 163.224C74.5078 163.461 74.3734 163.75 74.2777 164.092C74.182 164.434 74.1341 164.828 74.1341 165.274V165.562C74.1341 165.912 74.182 166.243 74.2777 166.553C74.3779 166.858 74.5215 167.127 74.7083 167.359C74.8997 167.592 75.1299 167.774 75.3987 167.906C75.6722 168.038 75.9821 168.104 76.3284 168.104C76.7751 168.104 77.1533 168.013 77.4632 167.831C77.7731 167.649 78.0443 167.405 78.2767 167.1L79.0423 167.708C78.8828 167.95 78.68 168.18 78.4339 168.398C78.1878 168.617 77.8848 168.795 77.5247 168.932C77.1693 169.068 76.7477 169.137 76.2601 169.137ZM82.4479 167.858L84.4713 161.604H85.7633L83.1041 169H82.2565L82.4479 167.858ZM80.7594 161.604L82.8444 167.893L82.9879 169H82.1403L79.4606 161.604H80.7594ZM89.6338 169.137C89.1188 169.137 88.6517 169.05 88.2324 168.877C87.8177 168.699 87.4599 168.451 87.1591 168.132C86.8629 167.813 86.6351 167.435 86.4755 166.997C86.316 166.56 86.2363 166.081 86.2363 165.562V165.274C86.2363 164.673 86.3252 164.137 86.5029 163.668C86.6806 163.194 86.9222 162.793 87.2275 162.465C87.5328 162.137 87.8792 161.888 88.2666 161.72C88.6539 161.551 89.055 161.467 89.4697 161.467C89.9983 161.467 90.4541 161.558 90.8369 161.74C91.2242 161.923 91.541 162.178 91.7871 162.506C92.0332 162.829 92.2155 163.212 92.3339 163.654C92.4524 164.092 92.5117 164.57 92.5117 165.09V165.657H86.9882V164.625H91.247V164.529C91.2288 164.201 91.1604 163.882 91.042 163.572C90.928 163.262 90.7457 163.007 90.4951 162.807C90.2444 162.606 89.9026 162.506 89.4697 162.506C89.1826 162.506 88.9183 162.567 88.6767 162.69C88.4352 162.809 88.2278 162.987 88.0546 163.224C87.8815 163.461 87.747 163.75 87.6513 164.092C87.5556 164.434 87.5078 164.828 87.5078 165.274V165.562C87.5078 165.912 87.5556 166.243 87.6513 166.553C87.7516 166.858 87.8951 167.127 88.082 167.359C88.2734 167.592 88.5035 167.774 88.7724 167.906C89.0459 168.038 89.3558 168.104 89.7021 168.104C90.1487 168.104 90.527 168.013 90.8369 167.831C91.1468 167.649 91.4179 167.405 91.6504 167.1L92.416 167.708C92.2565 167.95 92.0537 168.18 91.8076 168.398C91.5615 168.617 91.2584 168.795 90.8984 168.932C90.5429 169.068 90.1214 169.137 89.6338 169.137ZM95.0423 158.5V169H93.7708V158.5H95.0423ZM106.495 165.65V166.689H99.3036V165.944L103.761 159.047H104.793L103.685 161.043L100.739 165.65H106.495ZM105.107 159.047V169H103.843V159.047H105.107Z" fill="#787878"/>
<path d="M66.056 192V180.8H68.168V190.08H73.288V192H66.056ZM78.2479 192.224C77.4585 192.224 76.7492 192.064 76.1199 191.744C75.4905 191.424 74.9945 190.96 74.6319 190.352C74.2692 189.744 74.0879 189.013 74.0879 188.16V187.904C74.0879 187.051 74.2692 186.32 74.6319 185.712C74.9945 185.104 75.4905 184.64 76.1199 184.32C76.7492 184 77.4585 183.84 78.2479 183.84C79.0372 183.84 79.7465 184 80.3759 184.32C81.0052 184.64 81.5012 185.104 81.8639 185.712C82.2265 186.32 82.4079 187.051 82.4079 187.904V188.16C82.4079 189.013 82.2265 189.744 81.8639 190.352C81.5012 190.96 81.0052 191.424 80.3759 191.744C79.7465 192.064 79.0372 192.224 78.2479 192.224ZM78.2479 190.432C78.8665 190.432 79.3785 190.235 79.7839 189.84C80.1892 189.435 80.3919 188.859 80.3919 188.112V187.952C80.3919 187.205 80.1892 186.635 79.7839 186.24C79.3892 185.835 78.8772 185.632 78.2479 185.632C77.6292 185.632 77.1172 185.835 76.7119 186.24C76.3065 186.635 76.1039 187.205 76.1039 187.952V188.112C76.1039 188.859 76.3065 189.435 76.7119 189.84C77.1172 190.235 77.6292 190.432 78.2479 190.432ZM87.6768 192.224C86.9088 192.224 86.2101 192.064 85.5808 191.744C84.9621 191.424 84.4714 190.96 84.1088 190.352C83.7461 189.744 83.5648 189.008 83.5648 188.144V187.92C83.5648 187.056 83.7461 186.32 84.1088 185.712C84.4714 185.104 84.9621 184.64 85.5808 184.32C86.2101 184 86.9088 183.84 87.6768 183.84C88.4341 183.84 89.0848 183.973 89.6288 184.24C90.1728 184.507 90.6101 184.875 90.9408 185.344C91.2821 185.803 91.5061 186.325 91.6128 186.912L89.6608 187.328C89.6181 187.008 89.5221 186.72 89.3728 186.464C89.2234 186.208 89.0101 186.005 88.7328 185.856C88.4661 185.707 88.1301 185.632 87.7248 185.632C87.3194 185.632 86.9514 185.723 86.6208 185.904C86.3008 186.075 86.0448 186.336 85.8528 186.688C85.6714 187.029 85.5808 187.451 85.5808 187.952V188.112C85.5808 188.613 85.6714 189.04 85.8528 189.392C86.0448 189.733 86.3008 189.995 86.6208 190.176C86.9514 190.347 87.3194 190.432 87.7248 190.432C88.3328 190.432 88.7914 190.277 89.1008 189.968C89.4208 189.648 89.6234 189.232 89.7088 188.72L91.6608 189.184C91.5221 189.749 91.2821 190.267 90.9408 190.736C90.6101 191.195 90.1728 191.557 89.6288 191.824C89.0848 192.091 88.4341 192.224 87.6768 192.224ZM93.0038 192V180.8H95.0198V186.992H95.3078L97.9318 184.064H100.556L96.8918 187.904L100.684 192H98.0918L95.3078 188.848H95.0198V192H93.0038ZM104.847 192.224C104.057 192.224 103.359 192.059 102.751 191.728C102.153 191.387 101.684 190.912 101.343 190.304C101.012 189.685 100.847 188.96 100.847 188.128V187.936C100.847 187.104 101.012 186.384 101.343 185.776C101.673 185.157 102.137 184.683 102.735 184.352C103.332 184.011 104.025 183.84 104.815 183.84C105.593 183.84 106.271 184.016 106.847 184.368C107.423 184.709 107.871 185.189 108.191 185.808C108.511 186.416 108.671 187.125 108.671 187.936V188.624H102.895C102.916 189.168 103.119 189.611 103.503 189.952C103.887 190.293 104.356 190.464 104.911 190.464C105.476 190.464 105.892 190.341 106.159 190.096C106.425 189.851 106.628 189.579 106.767 189.28L108.415 190.144C108.265 190.421 108.047 190.725 107.759 191.056C107.481 191.376 107.108 191.653 106.639 191.888C106.169 192.112 105.572 192.224 104.847 192.224ZM102.911 187.12H106.623C106.58 186.661 106.393 186.293 106.063 186.016C105.743 185.739 105.321 185.6 104.799 185.6C104.255 185.6 103.823 185.739 103.503 186.016C103.183 186.293 102.985 186.661 102.911 187.12ZM113.345 192.224C112.716 192.224 112.124 192.069 111.569 191.76C111.025 191.44 110.588 190.976 110.257 190.368C109.926 189.76 109.761 189.024 109.761 188.16V187.904C109.761 187.04 109.926 186.304 110.257 185.696C110.588 185.088 111.025 184.629 111.569 184.32C112.113 184 112.705 183.84 113.345 183.84C113.825 183.84 114.225 183.899 114.545 184.016C114.876 184.123 115.142 184.261 115.345 184.432C115.548 184.603 115.702 184.784 115.809 184.976H116.097V180.8H118.113V192H116.129V191.04H115.841C115.66 191.339 115.377 191.611 114.993 191.856C114.62 192.101 114.07 192.224 113.345 192.224ZM113.953 190.464C114.572 190.464 115.089 190.267 115.505 189.872C115.921 189.467 116.129 188.88 116.129 188.112V187.952C116.129 187.184 115.921 186.603 115.505 186.208C115.1 185.803 114.582 185.6 113.953 185.6C113.334 185.6 112.817 185.803 112.401 186.208C111.985 186.603 111.777 187.184 111.777 187.952V188.112C111.777 188.88 111.985 189.467 112.401 189.872C112.817 190.267 113.334 190.464 113.953 190.464Z" fill="#323232"/>
<path d="M106.056 16V4.8H110.92C111.624 4.8 112.237 4.92267 112.76 5.168C113.283 5.41333 113.688 5.76 113.976 6.208C114.264 6.656 114.408 7.184 114.408 7.792V7.984C114.408 8.656 114.248 9.2 113.928 9.616C113.608 10.032 113.213 10.336 112.744 10.528V10.816C113.171 10.8373 113.501 10.9867 113.736 11.264C113.971 11.5307 114.088 11.888 114.088 12.336V16H111.976V12.64C111.976 12.384 111.907 12.176 111.768 12.016C111.64 11.856 111.421 11.776 111.112 11.776H108.168V16H106.056ZM108.168 9.856H110.696C111.197 9.856 111.587 9.72267 111.864 9.456C112.152 9.17867 112.296 8.816 112.296 8.368V8.208C112.296 7.76 112.157 7.40267 111.88 7.136C111.603 6.85867 111.208 6.72 110.696 6.72H108.168V9.856ZM119.525 16.224C118.736 16.224 118.037 16.0587 117.429 15.728C116.832 15.3867 116.363 14.912 116.021 14.304C115.691 13.6853 115.525 12.96 115.525 12.128V11.936C115.525 11.104 115.691 10.384 116.021 9.776C116.352 9.15733 116.816 8.68267 117.413 8.352C118.011 8.01067 118.704 7.84 119.493 7.84C120.272 7.84 120.949 8.016 121.525 8.368C122.101 8.70933 122.549 9.18933 122.869 9.808C123.189 10.416 123.349 11.1253 123.349 11.936V12.624H117.573C117.595 13.168 117.797 13.6107 118.181 13.952C118.565 14.2933 119.035 14.464 119.589 14.464C120.155 14.464 120.571 14.3413 120.837 14.096C121.104 13.8507 121.307 13.5787 121.445 13.28L123.093 14.144C122.944 14.4213 122.725 14.7253 122.437 15.056C122.16 15.376 121.787 15.6533 121.317 15.888C120.848 16.112 120.251 16.224 119.525 16.224ZM117.589 11.12H121.301C121.259 10.6613 121.072 10.2933 120.741 10.016C120.421 9.73867 120 9.6 119.477 9.6C118.933 9.6 118.501 9.73867 118.181 10.016C117.861 10.2933 117.664 10.6613 117.589 11.12ZM128.024 16.224C127.394 16.224 126.802 16.0693 126.248 15.76C125.704 15.44 125.266 14.976 124.936 14.368C124.605 13.76 124.44 13.024 124.44 12.16V11.904C124.44 11.04 124.605 10.304 124.936 9.696C125.266 9.088 125.704 8.62933 126.248 8.32C126.792 8 127.384 7.84 128.024 7.84C128.504 7.84 128.904 7.89867 129.224 8.016C129.554 8.12267 129.821 8.26133 130.024 8.432C130.226 8.60267 130.381 8.784 130.488 8.976H130.776V4.8H132.792V16H130.808V15.04H130.52C130.338 15.3387 130.056 15.6107 129.672 15.856C129.298 16.1013 128.749 16.224 128.024 16.224ZM128.632 14.464C129.25 14.464 129.768 14.2667 130.184 13.872C130.6 13.4667 130.808 12.88 130.808 12.112V11.952C130.808 11.184 130.6 10.6027 130.184 10.208C129.778 9.80267 129.261 9.6 128.632 9.6C128.013 9.6 127.496 9.80267 127.08 10.208C126.664 10.6027 126.456 11.184 126.456 11.952V12.112C126.456 12.88 126.664 13.4667 127.08 13.872C127.496 14.2667 128.013 14.464 128.632 14.464ZM142.273 16.224C141.409 16.224 140.647 16.0693 139.985 15.76C139.324 15.4507 138.807 15.008 138.433 14.432C138.06 13.856 137.873 13.1627 137.873 12.352V11.904H139.953V12.352C139.953 13.024 140.161 13.5307 140.577 13.872C140.993 14.2027 141.559 14.368 142.273 14.368C142.999 14.368 143.537 14.224 143.889 13.936C144.252 13.648 144.433 13.28 144.433 12.832C144.433 12.5227 144.343 12.272 144.161 12.08C143.991 11.888 143.735 11.7333 143.393 11.616C143.063 11.488 142.657 11.3707 142.177 11.264L141.809 11.184C141.041 11.0133 140.38 10.8 139.825 10.544C139.281 10.2773 138.86 9.93067 138.561 9.504C138.273 9.07733 138.129 8.52267 138.129 7.84C138.129 7.15733 138.289 6.576 138.609 6.096C138.94 5.60533 139.399 5.232 139.985 4.976C140.583 4.70933 141.281 4.576 142.081 4.576C142.881 4.576 143.591 4.71467 144.209 4.992C144.839 5.25867 145.329 5.664 145.681 6.208C146.044 6.74133 146.225 7.41333 146.225 8.224V8.704H144.145V8.224C144.145 7.79733 144.06 7.456 143.889 7.2C143.729 6.93333 143.495 6.74133 143.185 6.624C142.876 6.496 142.508 6.432 142.081 6.432C141.441 6.432 140.967 6.55467 140.657 6.8C140.359 7.03467 140.209 7.36 140.209 7.776C140.209 8.05333 140.279 8.288 140.417 8.48C140.567 8.672 140.785 8.832 141.073 8.96C141.361 9.088 141.729 9.2 142.177 9.296L142.545 9.376C143.345 9.54667 144.039 9.76533 144.625 10.032C145.223 10.2987 145.687 10.6507 146.017 11.088C146.348 11.5253 146.513 12.0853 146.513 12.768C146.513 13.4507 146.337 14.0533 145.985 14.576C145.644 15.088 145.153 15.4933 144.513 15.792C143.884 16.08 143.137 16.224 142.273 16.224ZM151.449 16.224C150.659 16.224 149.961 16.0587 149.353 15.728C148.755 15.3867 148.286 14.912 147.945 14.304C147.614 13.6853 147.449 12.96 147.449 12.128V11.936C147.449 11.104 147.614 10.384 147.945 9.776C148.275 9.15733 148.739 8.68267 149.337 8.352C149.934 8.01067 150.627 7.84 151.417 7.84C152.195 7.84 152.873 8.016 153.449 8.368C154.025 8.70933 154.473 9.18933 154.793 9.808C155.113 10.416 155.273 11.1253 155.273 11.936V12.624H149.497C149.518 13.168 149.721 13.6107 150.105 13.952C150.489 14.2933 150.958 14.464 151.513 14.464C152.078 14.464 152.494 14.3413 152.761 14.096C153.027 13.8507 153.23 13.5787 153.369 13.28L155.017 14.144C154.867 14.4213 154.649 14.7253 154.361 15.056C154.083 15.376 153.71 15.6533 153.241 15.888C152.771 16.112 152.174 16.224 151.449 16.224ZM149.513 11.12H153.225C153.182 10.6613 152.995 10.2933 152.665 10.016C152.345 9.73867 151.923 9.6 151.401 9.6C150.857 9.6 150.425 9.73867 150.105 10.016C149.785 10.2933 149.587 10.6613 149.513 11.12ZM159.211 16.224C158.646 16.224 158.139 16.128 157.691 15.936C157.243 15.7333 156.886 15.4453 156.619 15.072C156.363 14.688 156.235 14.224 156.235 13.68C156.235 13.136 156.363 12.6827 156.619 12.32C156.886 11.9467 157.248 11.6693 157.707 11.488C158.176 11.296 158.71 11.2 159.307 11.2H161.483V10.752C161.483 10.3787 161.366 10.0747 161.131 9.84C160.896 9.59467 160.523 9.472 160.011 9.472C159.51 9.472 159.136 9.58933 158.891 9.824C158.646 10.048 158.486 10.3413 158.411 10.704L156.555 10.08C156.683 9.67467 156.886 9.30667 157.163 8.976C157.451 8.63467 157.83 8.36267 158.299 8.16C158.779 7.94667 159.36 7.84 160.043 7.84C161.088 7.84 161.915 8.10133 162.523 8.624C163.131 9.14667 163.435 9.904 163.435 10.896V13.856C163.435 14.176 163.584 14.336 163.883 14.336H164.523V16H163.179C162.784 16 162.459 15.904 162.203 15.712C161.947 15.52 161.819 15.264 161.819 14.944V14.928H161.515C161.472 15.056 161.376 15.2267 161.227 15.44C161.078 15.6427 160.843 15.824 160.523 15.984C160.203 16.144 159.766 16.224 159.211 16.224ZM159.563 14.592C160.128 14.592 160.587 14.4373 160.939 14.128C161.302 13.808 161.483 13.3867 161.483 12.864V12.704H159.451C159.078 12.704 158.784 12.784 158.571 12.944C158.358 13.104 158.251 13.328 158.251 13.616C158.251 13.904 158.363 14.1387 158.587 14.32C158.811 14.5013 159.136 14.592 159.563 14.592ZM165.677 16V4.8H167.693V16H165.677Z" fill="#323232"/>
<path d="M69 304.5V366.5" stroke="black" stroke-dasharray="4 4"/>
<path d="M206 177.5V239.5" stroke="black" stroke-dasharray="4 4"/>
<path d="M137 50.5V112.5" stroke="black" stroke-dasharray="4 4"/>
<rect x="49" y="284" width="40" height="40" rx="20" fill="#323232"/>
<path d="M75 300.5H74V298.5C74 295.74 71.76 293.5 69 293.5C66.24 293.5 64 295.74 64 298.5V300.5H63C61.9 300.5 61 301.4 61 302.5V312.5C61 313.6 61.9 314.5 63 314.5H75C76.1 314.5 77 313.6 77 312.5V302.5C77 301.4 76.1 300.5 75 300.5ZM66 298.5C66 296.84 67.34 295.5 69 295.5C70.66 295.5 72 296.84 72 298.5V300.5H66V298.5ZM75 312.5H63V302.5H75V312.5ZM69 309.5C70.1 309.5 71 308.6 71 307.5C71 306.4 70.1 305.5 69 305.5C67.9 305.5 67 306.4 67 307.5C67 308.6 67.9 309.5 69 309.5Z" fill="#F2F2F2"/>
<rect x="186" y="156" width="40" height="40" rx="20" fill="#323232"/>
<path d="M212 172.5H211V170.5C211 167.74 208.76 165.5 206 165.5C203.24 165.5 201 167.74 201 170.5V172.5H200C198.9 172.5 198 173.4 198 174.5V184.5C198 185.6 198.9 186.5 200 186.5H212C213.1 186.5 214 185.6 214 184.5V174.5C214 173.4 213.1 172.5 212 172.5ZM203 170.5C203 168.84 204.34 167.5 206 167.5C207.66 167.5 209 168.84 209 170.5V172.5H203V170.5ZM212 184.5H200V174.5H212V184.5ZM206 181.5C207.1 181.5 208 180.6 208 179.5C208 178.4 207.1 177.5 206 177.5C204.9 177.5 204 178.4 204 179.5C204 180.6 204.9 181.5 206 181.5Z" fill="#F2F2F2"/>
<rect x="117" y="30" width="40" height="40" rx="20" fill="#323232"/>
<path d="M136.86 43.5L137.26 45.5H142.5V51.5H139.14L138.74 49.5H131.5V43.5H136.86ZM138.5 41.5H129.5V58.5H131.5V51.5H137.1L137.5 53.5H144.5V43.5H138.9L138.5 41.5Z" fill="#F2F2F2"/>
<path d="M38 621H218C253.07 621 281.5 592.57 281.5 557.5C281.5 522.43 253.07 494 218 494L94.5 494" stroke="white" stroke-width="12" stroke-linecap="round"/>
<path d="M38 621H218C253.07 621 281.5 592.57 281.5 557.5C281.5 522.43 253.07 494 218 494L94.5 494" stroke="#E06D34" stroke-width="4" stroke-linecap="round"/>
<path d="M69 559V621" stroke="#E06D34"/>
<path d="M206 494H72.5C37.4299 494 9 465.57 9 430.5C9 395.43 37.4299 367 72.5 367H206" stroke="white" stroke-width="12"/>
<rect x="49" y="538" width="40" height="40" rx="20" fill="#E06D34"/>
<path d="M66.3292 561.229L62.8542 557.754L61.6709 558.929L66.3292 563.587L76.3292 553.587L75.1542 552.412L66.3292 561.229Z" fill="white"/>
<path d="M206 494H72.5C37.4299 494 9 465.57 9 430.5C9 395.43 37.4299 367 72.5 367H206" stroke="#D5D5D5" stroke-width="2" stroke-dasharray="5 5"/>
<path d="M206 494H72.5C37.4299 494 9 465.57 9 430.5" stroke="#E06D34" stroke-width="4"/>
<path d="M206 240H72.5C37.4299 240 9 211.57 9 176.5C9 141.43 37.4299 113 72.5 113H170.5" stroke="white" stroke-width="12" stroke-linecap="round"/>
<path d="M94.5 367H218C253.07 367 281.5 338.57 281.5 303.5C281.5 268.43 253.07 240 218 240L94.5 240" stroke="white" stroke-width="12"/>
<path d="M206 240H72.5C37.4299 240 9 211.57 9 176.5C9 141.43 37.4299 113 72.5 113H170.5" stroke="#D5D5D5" stroke-width="2" stroke-dasharray="5 5"/>
<path d="M91.5 367H218C253.07 367 281.5 338.57 281.5 303.5C281.5 268.43 253.07 240 218 240H198.5" stroke="#D5D5D5" stroke-width="2" stroke-dasharray="5 5"/>
<circle cx="9" cy="427" r="9" fill="#E06D34"/>
<circle cx="39" cy="621" r="4" fill="#E06D34"/>
<path d="M206 432L206 495" stroke="#E06D34" stroke-dasharray="4 4"/>
<circle opacity="0.2" cx="206" cy="431" r="35" fill="#E06D34"/>
<circle opacity="0.2" cx="206" cy="431" r="27" fill="#E06D34"/>
<rect x="188" y="413" width="36" height="36" rx="18" fill="#F2F2F2"/>
<rect x="188" y="413" width="36" height="36" rx="18" stroke="#E06D34" stroke-width="4"/>
<path d="M199.857 428.952C198.731 428.952 197.81 429.874 197.81 431C197.81 432.126 198.731 433.048 199.857 433.048C200.983 433.048 201.905 432.126 201.905 431C201.905 429.874 200.983 428.952 199.857 428.952ZM212.143 428.952C211.017 428.952 210.095 429.874 210.095 431C210.095 432.126 211.017 433.048 212.143 433.048C213.269 433.048 214.191 432.126 214.191 431C214.191 429.874 213.269 428.952 212.143 428.952ZM206 428.952C204.874 428.952 203.952 429.874 203.952 431C203.952 432.126 204.874 433.048 206 433.048C207.126 433.048 208.048 432.126 208.048 431C208.048 429.874 207.126 428.952 206 428.952Z" fill="#E06D34"/>
</svg>
