<svg width="393" height="456" viewBox="0 0 393 456" fill="none" xmlns="http://www.w3.org/2000/svg">
<g clip-path="url(#clip0_3814_20928)">
<path d="M166.191 378.927V380H161.215V378.927H166.191ZM161.475 370.047V380H160.155V370.047H161.475ZM170.26 380.137C169.745 380.137 169.278 380.05 168.859 379.877C168.444 379.699 168.086 379.451 167.785 379.132C167.489 378.813 167.261 378.435 167.102 377.997C166.942 377.56 166.863 377.081 166.863 376.562V376.274C166.863 375.673 166.951 375.137 167.129 374.668C167.307 374.194 167.548 373.793 167.854 373.465C168.159 373.137 168.506 372.888 168.893 372.72C169.28 372.551 169.681 372.467 170.096 372.467C170.625 372.467 171.08 372.558 171.463 372.74C171.851 372.923 172.167 373.178 172.413 373.506C172.659 373.829 172.842 374.212 172.96 374.654C173.079 375.092 173.138 375.57 173.138 376.09V376.657H167.615V375.625H171.873V375.529C171.855 375.201 171.787 374.882 171.668 374.572C171.554 374.262 171.372 374.007 171.121 373.807C170.871 373.606 170.529 373.506 170.096 373.506C169.809 373.506 169.545 373.567 169.303 373.69C169.062 373.809 168.854 373.987 168.681 374.224C168.508 374.461 168.373 374.75 168.278 375.092C168.182 375.434 168.134 375.828 168.134 376.274V376.562C168.134 376.912 168.182 377.243 168.278 377.553C168.378 377.858 168.521 378.127 168.708 378.359C168.9 378.592 169.13 378.774 169.399 378.906C169.672 379.038 169.982 379.104 170.328 379.104C170.775 379.104 171.153 379.013 171.463 378.831C171.773 378.649 172.044 378.405 172.277 378.1L173.042 378.708C172.883 378.95 172.68 379.18 172.434 379.398C172.188 379.617 171.885 379.795 171.525 379.932C171.169 380.068 170.748 380.137 170.26 380.137ZM176.448 378.858L178.471 372.604H179.763L177.104 380H176.256L176.448 378.858ZM174.759 372.604L176.844 378.893L176.988 380H176.14L173.461 372.604H174.759ZM183.634 380.137C183.119 380.137 182.652 380.05 182.232 379.877C181.818 379.699 181.46 379.451 181.159 379.132C180.863 378.813 180.635 378.435 180.476 377.997C180.316 377.56 180.236 377.081 180.236 376.562V376.274C180.236 375.673 180.325 375.137 180.503 374.668C180.681 374.194 180.922 373.793 181.228 373.465C181.533 373.137 181.879 372.888 182.267 372.72C182.654 372.551 183.055 372.467 183.47 372.467C183.998 372.467 184.454 372.558 184.837 372.74C185.224 372.923 185.541 373.178 185.787 373.506C186.033 373.829 186.215 374.212 186.334 374.654C186.452 375.092 186.512 375.57 186.512 376.09V376.657H180.988V375.625H185.247V375.529C185.229 375.201 185.16 374.882 185.042 374.572C184.928 374.262 184.746 374.007 184.495 373.807C184.244 373.606 183.903 373.506 183.47 373.506C183.183 373.506 182.918 373.567 182.677 373.69C182.435 373.809 182.228 373.987 182.055 374.224C181.881 374.461 181.747 374.75 181.651 375.092C181.556 375.434 181.508 375.828 181.508 376.274V376.562C181.508 376.912 181.556 377.243 181.651 377.553C181.752 377.858 181.895 378.127 182.082 378.359C182.273 378.592 182.504 378.774 182.772 378.906C183.046 379.038 183.356 379.104 183.702 379.104C184.149 379.104 184.527 379.013 184.837 378.831C185.147 378.649 185.418 378.405 185.65 378.1L186.416 378.708C186.256 378.95 186.054 379.18 185.808 379.398C185.561 379.617 185.258 379.795 184.898 379.932C184.543 380.068 184.121 380.137 183.634 380.137ZM189.042 369.5V380H187.771V369.5H189.042ZM197.925 369.992V380H196.66V371.571L194.11 372.501V371.359L197.726 369.992H197.925Z" fill="#787878"/>
<path d="M164.312 403.224C162.925 403.224 161.827 402.84 161.016 402.072C160.205 401.293 159.8 400.184 159.8 398.744V396.056C159.8 394.616 160.205 393.512 161.016 392.744C161.827 391.965 162.925 391.576 164.312 391.576C165.688 391.576 166.749 391.955 167.496 392.712C168.253 393.459 168.632 394.488 168.632 395.8V395.896H166.552V395.736C166.552 395.075 166.365 394.531 165.992 394.104C165.629 393.677 165.069 393.464 164.312 393.464C163.565 393.464 162.979 393.693 162.552 394.152C162.125 394.611 161.912 395.235 161.912 396.024V398.776C161.912 399.555 162.125 400.179 162.552 400.648C162.979 401.107 163.565 401.336 164.312 401.336C165.069 401.336 165.629 401.123 165.992 400.696C166.365 400.259 166.552 399.715 166.552 399.064V398.776H168.632V399C168.632 400.312 168.253 401.347 167.496 402.104C166.749 402.851 165.688 403.224 164.312 403.224ZM173.873 403.224C173.084 403.224 172.374 403.064 171.745 402.744C171.116 402.424 170.62 401.96 170.257 401.352C169.894 400.744 169.713 400.013 169.713 399.16V398.904C169.713 398.051 169.894 397.32 170.257 396.712C170.62 396.104 171.116 395.64 171.745 395.32C172.374 395 173.084 394.84 173.873 394.84C174.662 394.84 175.372 395 176.001 395.32C176.63 395.64 177.126 396.104 177.489 396.712C177.852 397.32 178.033 398.051 178.033 398.904V399.16C178.033 400.013 177.852 400.744 177.489 401.352C177.126 401.96 176.63 402.424 176.001 402.744C175.372 403.064 174.662 403.224 173.873 403.224ZM173.873 401.432C174.492 401.432 175.004 401.235 175.409 400.84C175.814 400.435 176.017 399.859 176.017 399.112V398.952C176.017 398.205 175.814 397.635 175.409 397.24C175.014 396.835 174.502 396.632 173.873 396.632C173.254 396.632 172.742 396.835 172.337 397.24C171.932 397.635 171.729 398.205 171.729 398.952V399.112C171.729 399.859 171.932 400.435 172.337 400.84C172.742 401.235 173.254 401.432 173.873 401.432ZM179.574 403V395.064H181.558V395.928H181.846C181.984 395.661 182.214 395.432 182.534 395.24C182.854 395.037 183.275 394.936 183.798 394.936C184.363 394.936 184.816 395.048 185.158 395.272C185.499 395.485 185.76 395.768 185.942 396.12H186.23C186.411 395.779 186.667 395.496 186.998 395.272C187.328 395.048 187.798 394.936 188.406 394.936C188.896 394.936 189.339 395.043 189.734 395.256C190.139 395.459 190.459 395.773 190.694 396.2C190.939 396.616 191.062 397.144 191.062 397.784V403H189.046V397.928C189.046 397.491 188.934 397.165 188.71 396.952C188.486 396.728 188.171 396.616 187.766 396.616C187.307 396.616 186.95 396.765 186.694 397.064C186.448 397.352 186.326 397.768 186.326 398.312V403H184.31V397.928C184.31 397.491 184.198 397.165 183.974 396.952C183.75 396.728 183.435 396.616 183.03 396.616C182.571 396.616 182.214 396.765 181.958 397.064C181.712 397.352 181.59 397.768 181.59 398.312V403H179.574ZM192.91 406.2V395.064H194.894V396.024H195.182C195.363 395.715 195.646 395.443 196.03 395.208C196.414 394.963 196.963 394.84 197.678 394.84C198.318 394.84 198.91 395 199.454 395.32C199.998 395.629 200.435 396.088 200.766 396.696C201.097 397.304 201.262 398.04 201.262 398.904V399.16C201.262 400.024 201.097 400.76 200.766 401.368C200.435 401.976 199.998 402.44 199.454 402.76C198.91 403.069 198.318 403.224 197.678 403.224C197.198 403.224 196.793 403.165 196.462 403.048C196.142 402.941 195.881 402.803 195.678 402.632C195.486 402.451 195.331 402.269 195.214 402.088H194.926V406.2H192.91ZM197.07 401.464C197.699 401.464 198.217 401.267 198.622 400.872C199.038 400.467 199.246 399.88 199.246 399.112V398.952C199.246 398.184 199.038 397.603 198.622 397.208C198.206 396.803 197.689 396.6 197.07 396.6C196.451 396.6 195.934 396.803 195.518 397.208C195.102 397.603 194.894 398.184 194.894 398.952V399.112C194.894 399.88 195.102 400.467 195.518 400.872C195.934 401.267 196.451 401.464 197.07 401.464ZM202.793 403V391.8H204.809V403H202.793ZM210.339 403.224C209.55 403.224 208.851 403.059 208.243 402.728C207.646 402.387 207.176 401.912 206.835 401.304C206.504 400.685 206.339 399.96 206.339 399.128V398.936C206.339 398.104 206.504 397.384 206.835 396.776C207.166 396.157 207.63 395.683 208.227 395.352C208.824 395.011 209.518 394.84 210.307 394.84C211.086 394.84 211.763 395.016 212.339 395.368C212.915 395.709 213.363 396.189 213.683 396.808C214.003 397.416 214.163 398.125 214.163 398.936V399.624H208.387C208.408 400.168 208.611 400.611 208.995 400.952C209.379 401.293 209.848 401.464 210.403 401.464C210.968 401.464 211.384 401.341 211.651 401.096C211.918 400.851 212.12 400.579 212.259 400.28L213.907 401.144C213.758 401.421 213.539 401.725 213.251 402.056C212.974 402.376 212.6 402.653 212.131 402.888C211.662 403.112 211.064 403.224 210.339 403.224ZM208.403 398.12H212.115C212.072 397.661 211.886 397.293 211.555 397.016C211.235 396.739 210.814 396.6 210.291 396.6C209.747 396.6 209.315 396.739 208.995 397.016C208.675 397.293 208.478 397.661 208.403 398.12ZM218.428 403C217.905 403 217.478 402.84 217.148 402.52C216.828 402.189 216.668 401.752 216.668 401.208V396.728H214.684V395.064H216.668V392.6H218.684V395.064H220.86V396.728H218.684V400.856C218.684 401.176 218.833 401.336 219.132 401.336H220.668V403H218.428ZM225.699 403.224C224.91 403.224 224.211 403.059 223.603 402.728C223.006 402.387 222.536 401.912 222.195 401.304C221.864 400.685 221.699 399.96 221.699 399.128V398.936C221.699 398.104 221.864 397.384 222.195 396.776C222.526 396.157 222.99 395.683 223.587 395.352C224.184 395.011 224.878 394.84 225.667 394.84C226.446 394.84 227.123 395.016 227.699 395.368C228.275 395.709 228.723 396.189 229.043 396.808C229.363 397.416 229.523 398.125 229.523 398.936V399.624H223.747C223.768 400.168 223.971 400.611 224.355 400.952C224.739 401.293 225.208 401.464 225.763 401.464C226.328 401.464 226.744 401.341 227.011 401.096C227.278 400.851 227.48 400.579 227.619 400.28L229.267 401.144C229.118 401.421 228.899 401.725 228.611 402.056C228.334 402.376 227.96 402.653 227.491 402.888C227.022 403.112 226.424 403.224 225.699 403.224ZM223.763 398.12H227.475C227.432 397.661 227.246 397.293 226.915 397.016C226.595 396.739 226.174 396.6 225.651 396.6C225.107 396.6 224.675 396.739 224.355 397.016C224.035 397.293 223.838 397.661 223.763 398.12ZM234.198 403.224C233.568 403.224 232.976 403.069 232.422 402.76C231.878 402.44 231.44 401.976 231.11 401.368C230.779 400.76 230.614 400.024 230.614 399.16V398.904C230.614 398.04 230.779 397.304 231.11 396.696C231.44 396.088 231.878 395.629 232.422 395.32C232.966 395 233.558 394.84 234.198 394.84C234.678 394.84 235.078 394.899 235.398 395.016C235.728 395.123 235.995 395.261 236.198 395.432C236.4 395.603 236.555 395.784 236.662 395.976H236.95V391.8H238.966V403H236.982V402.04H236.694C236.512 402.339 236.23 402.611 235.846 402.856C235.472 403.101 234.923 403.224 234.198 403.224ZM234.806 401.464C235.424 401.464 235.942 401.267 236.358 400.872C236.774 400.467 236.982 399.88 236.982 399.112V398.952C236.982 398.184 236.774 397.603 236.358 397.208C235.952 396.803 235.435 396.6 234.806 396.6C234.187 396.6 233.67 396.803 233.254 397.208C232.838 397.603 232.63 398.184 232.63 398.952V399.112C232.63 399.88 232.838 400.467 233.254 400.872C233.67 401.267 234.187 401.464 234.806 401.464Z" fill="#323232"/>
<path d="M166.191 124.927V126H161.215V124.927H166.191ZM161.475 116.047V126H160.155V116.047H161.475ZM170.26 126.137C169.745 126.137 169.278 126.05 168.859 125.877C168.444 125.699 168.086 125.451 167.785 125.132C167.489 124.813 167.261 124.435 167.102 123.997C166.942 123.56 166.863 123.081 166.863 122.562V122.274C166.863 121.673 166.951 121.137 167.129 120.668C167.307 120.194 167.548 119.793 167.854 119.465C168.159 119.137 168.506 118.888 168.893 118.72C169.28 118.551 169.681 118.467 170.096 118.467C170.625 118.467 171.08 118.558 171.463 118.74C171.851 118.923 172.167 119.178 172.413 119.506C172.659 119.829 172.842 120.212 172.96 120.654C173.079 121.092 173.138 121.57 173.138 122.09V122.657H167.615V121.625H171.873V121.529C171.855 121.201 171.787 120.882 171.668 120.572C171.554 120.262 171.372 120.007 171.121 119.807C170.871 119.606 170.529 119.506 170.096 119.506C169.809 119.506 169.545 119.567 169.303 119.69C169.062 119.809 168.854 119.987 168.681 120.224C168.508 120.461 168.373 120.75 168.278 121.092C168.182 121.434 168.134 121.828 168.134 122.274V122.562C168.134 122.912 168.182 123.243 168.278 123.553C168.378 123.858 168.521 124.127 168.708 124.359C168.9 124.592 169.13 124.774 169.399 124.906C169.672 125.038 169.982 125.104 170.328 125.104C170.775 125.104 171.153 125.013 171.463 124.831C171.773 124.649 172.044 124.405 172.277 124.1L173.042 124.708C172.883 124.95 172.68 125.18 172.434 125.398C172.188 125.617 171.885 125.795 171.525 125.932C171.169 126.068 170.748 126.137 170.26 126.137ZM176.448 124.858L178.471 118.604H179.763L177.104 126H176.256L176.448 124.858ZM174.759 118.604L176.844 124.893L176.988 126H176.14L173.461 118.604H174.759ZM183.634 126.137C183.119 126.137 182.652 126.05 182.232 125.877C181.818 125.699 181.46 125.451 181.159 125.132C180.863 124.813 180.635 124.435 180.476 123.997C180.316 123.56 180.236 123.081 180.236 122.562V122.274C180.236 121.673 180.325 121.137 180.503 120.668C180.681 120.194 180.922 119.793 181.228 119.465C181.533 119.137 181.879 118.888 182.267 118.72C182.654 118.551 183.055 118.467 183.47 118.467C183.998 118.467 184.454 118.558 184.837 118.74C185.224 118.923 185.541 119.178 185.787 119.506C186.033 119.829 186.215 120.212 186.334 120.654C186.452 121.092 186.512 121.57 186.512 122.09V122.657H180.988V121.625H185.247V121.529C185.229 121.201 185.16 120.882 185.042 120.572C184.928 120.262 184.746 120.007 184.495 119.807C184.244 119.606 183.903 119.506 183.47 119.506C183.183 119.506 182.918 119.567 182.677 119.69C182.435 119.809 182.228 119.987 182.055 120.224C181.881 120.461 181.747 120.75 181.651 121.092C181.556 121.434 181.508 121.828 181.508 122.274V122.562C181.508 122.912 181.556 123.243 181.651 123.553C181.752 123.858 181.895 124.127 182.082 124.359C182.273 124.592 182.504 124.774 182.772 124.906C183.046 125.038 183.356 125.104 183.702 125.104C184.149 125.104 184.527 125.013 184.837 124.831C185.147 124.649 185.418 124.405 185.65 124.1L186.416 124.708C186.256 124.95 186.054 125.18 185.808 125.398C185.561 125.617 185.258 125.795 184.898 125.932C184.543 126.068 184.121 126.137 183.634 126.137ZM189.042 115.5V126H187.771V115.5H189.042ZM195.614 120.401H196.517C196.959 120.401 197.323 120.328 197.61 120.183C197.902 120.032 198.118 119.829 198.26 119.574C198.406 119.314 198.478 119.023 198.478 118.699C198.478 118.316 198.415 117.995 198.287 117.735C198.159 117.476 197.968 117.28 197.713 117.147C197.458 117.015 197.134 116.949 196.742 116.949C196.387 116.949 196.072 117.02 195.799 117.161C195.53 117.298 195.318 117.494 195.163 117.749C195.013 118.004 194.937 118.305 194.937 118.651H193.673C193.673 118.146 193.8 117.685 194.056 117.271C194.311 116.856 194.669 116.525 195.129 116.279C195.594 116.033 196.131 115.91 196.742 115.91C197.344 115.91 197.87 116.017 198.321 116.231C198.772 116.441 199.123 116.756 199.374 117.175C199.625 117.59 199.75 118.107 199.75 118.727C199.75 118.977 199.691 119.246 199.572 119.533C199.458 119.816 199.278 120.08 199.032 120.326C198.791 120.572 198.476 120.775 198.089 120.935C197.701 121.09 197.237 121.167 196.694 121.167H195.614V120.401ZM195.614 121.44V120.682H196.694C197.328 120.682 197.852 120.757 198.267 120.907C198.681 121.058 199.007 121.258 199.244 121.509C199.486 121.759 199.654 122.035 199.75 122.336C199.85 122.632 199.9 122.928 199.9 123.225C199.9 123.689 199.821 124.102 199.661 124.462C199.506 124.822 199.285 125.127 198.998 125.378C198.715 125.629 198.383 125.818 198 125.945C197.617 126.073 197.2 126.137 196.749 126.137C196.316 126.137 195.908 126.075 195.525 125.952C195.147 125.829 194.812 125.651 194.52 125.419C194.229 125.182 194.001 124.893 193.837 124.551C193.673 124.204 193.591 123.81 193.591 123.368H194.855C194.855 123.715 194.931 124.018 195.081 124.277C195.236 124.537 195.455 124.74 195.737 124.886C196.024 125.027 196.362 125.098 196.749 125.098C197.136 125.098 197.469 125.032 197.747 124.899C198.03 124.763 198.246 124.558 198.396 124.284C198.551 124.011 198.629 123.667 198.629 123.252C198.629 122.837 198.542 122.498 198.369 122.233C198.196 121.965 197.95 121.766 197.631 121.639C197.316 121.507 196.945 121.44 196.517 121.44H195.614Z" fill="#787878"/>
<path d="M160.056 149V137.8H162.168V147.08H167.288V149H160.056ZM172.248 149.224C171.459 149.224 170.749 149.064 170.12 148.744C169.491 148.424 168.995 147.96 168.632 147.352C168.269 146.744 168.088 146.013 168.088 145.16V144.904C168.088 144.051 168.269 143.32 168.632 142.712C168.995 142.104 169.491 141.64 170.12 141.32C170.749 141 171.459 140.84 172.248 140.84C173.037 140.84 173.747 141 174.376 141.32C175.005 141.64 175.501 142.104 175.864 142.712C176.227 143.32 176.408 144.051 176.408 144.904V145.16C176.408 146.013 176.227 146.744 175.864 147.352C175.501 147.96 175.005 148.424 174.376 148.744C173.747 149.064 173.037 149.224 172.248 149.224ZM172.248 147.432C172.867 147.432 173.379 147.235 173.784 146.84C174.189 146.435 174.392 145.859 174.392 145.112V144.952C174.392 144.205 174.189 143.635 173.784 143.24C173.389 142.835 172.877 142.632 172.248 142.632C171.629 142.632 171.117 142.835 170.712 143.24C170.307 143.635 170.104 144.205 170.104 144.952V145.112C170.104 145.859 170.307 146.435 170.712 146.84C171.117 147.235 171.629 147.432 172.248 147.432ZM181.677 149.224C180.909 149.224 180.21 149.064 179.581 148.744C178.962 148.424 178.471 147.96 178.109 147.352C177.746 146.744 177.565 146.008 177.565 145.144V144.92C177.565 144.056 177.746 143.32 178.109 142.712C178.471 142.104 178.962 141.64 179.581 141.32C180.21 141 180.909 140.84 181.677 140.84C182.434 140.84 183.085 140.973 183.629 141.24C184.173 141.507 184.61 141.875 184.941 142.344C185.282 142.803 185.506 143.325 185.613 143.912L183.661 144.328C183.618 144.008 183.522 143.72 183.373 143.464C183.223 143.208 183.01 143.005 182.733 142.856C182.466 142.707 182.13 142.632 181.725 142.632C181.319 142.632 180.951 142.723 180.621 142.904C180.301 143.075 180.045 143.336 179.853 143.688C179.671 144.029 179.581 144.451 179.581 144.952V145.112C179.581 145.613 179.671 146.04 179.853 146.392C180.045 146.733 180.301 146.995 180.621 147.176C180.951 147.347 181.319 147.432 181.725 147.432C182.333 147.432 182.791 147.277 183.101 146.968C183.421 146.648 183.623 146.232 183.709 145.72L185.661 146.184C185.522 146.749 185.282 147.267 184.941 147.736C184.61 148.195 184.173 148.557 183.629 148.824C183.085 149.091 182.434 149.224 181.677 149.224ZM187.004 149V137.8H189.02V143.992H189.308L191.932 141.064H194.556L190.892 144.904L194.684 149H192.092L189.308 145.848H189.02V149H187.004ZM198.847 149.224C198.057 149.224 197.359 149.059 196.751 148.728C196.153 148.387 195.684 147.912 195.343 147.304C195.012 146.685 194.847 145.96 194.847 145.128V144.936C194.847 144.104 195.012 143.384 195.343 142.776C195.673 142.157 196.137 141.683 196.735 141.352C197.332 141.011 198.025 140.84 198.815 140.84C199.593 140.84 200.271 141.016 200.847 141.368C201.423 141.709 201.871 142.189 202.191 142.808C202.511 143.416 202.671 144.125 202.671 144.936V145.624H196.895C196.916 146.168 197.119 146.611 197.503 146.952C197.887 147.293 198.356 147.464 198.911 147.464C199.476 147.464 199.892 147.341 200.159 147.096C200.425 146.851 200.628 146.579 200.767 146.28L202.415 147.144C202.265 147.421 202.047 147.725 201.759 148.056C201.481 148.376 201.108 148.653 200.639 148.888C200.169 149.112 199.572 149.224 198.847 149.224ZM196.911 144.12H200.623C200.58 143.661 200.393 143.293 200.063 143.016C199.743 142.739 199.321 142.6 198.799 142.6C198.255 142.6 197.823 142.739 197.503 143.016C197.183 143.293 196.985 143.661 196.911 144.12ZM207.345 149.224C206.716 149.224 206.124 149.069 205.569 148.76C205.025 148.44 204.588 147.976 204.257 147.368C203.926 146.76 203.761 146.024 203.761 145.16V144.904C203.761 144.04 203.926 143.304 204.257 142.696C204.588 142.088 205.025 141.629 205.569 141.32C206.113 141 206.705 140.84 207.345 140.84C207.825 140.84 208.225 140.899 208.545 141.016C208.876 141.123 209.142 141.261 209.345 141.432C209.548 141.603 209.702 141.784 209.809 141.976H210.097V137.8H212.113V149H210.129V148.04H209.841C209.66 148.339 209.377 148.611 208.993 148.856C208.62 149.101 208.07 149.224 207.345 149.224ZM207.953 147.464C208.572 147.464 209.089 147.267 209.505 146.872C209.921 146.467 210.129 145.88 210.129 145.112V144.952C210.129 144.184 209.921 143.603 209.505 143.208C209.1 142.803 208.582 142.6 207.953 142.6C207.334 142.6 206.817 142.803 206.401 143.208C205.985 143.603 205.777 144.184 205.777 144.952V145.112C205.777 145.88 205.985 146.467 206.401 146.872C206.817 147.267 207.334 147.464 207.953 147.464Z" fill="#323232"/>
<path d="M127.191 251.927V253H122.215V251.927H127.191ZM122.475 243.047V253H121.155V243.047H122.475ZM131.26 253.137C130.745 253.137 130.278 253.05 129.859 252.877C129.444 252.699 129.086 252.451 128.785 252.132C128.489 251.813 128.261 251.435 128.102 250.997C127.942 250.56 127.863 250.081 127.863 249.562V249.274C127.863 248.673 127.951 248.137 128.129 247.668C128.307 247.194 128.548 246.793 128.854 246.465C129.159 246.137 129.506 245.888 129.893 245.72C130.28 245.551 130.681 245.467 131.096 245.467C131.625 245.467 132.08 245.558 132.463 245.74C132.851 245.923 133.167 246.178 133.413 246.506C133.659 246.829 133.842 247.212 133.96 247.654C134.079 248.092 134.138 248.57 134.138 249.09V249.657H128.615V248.625H132.873V248.529C132.855 248.201 132.787 247.882 132.668 247.572C132.554 247.262 132.372 247.007 132.121 246.807C131.871 246.606 131.529 246.506 131.096 246.506C130.809 246.506 130.545 246.567 130.303 246.69C130.062 246.809 129.854 246.987 129.681 247.224C129.508 247.461 129.373 247.75 129.278 248.092C129.182 248.434 129.134 248.828 129.134 249.274V249.562C129.134 249.912 129.182 250.243 129.278 250.553C129.378 250.858 129.521 251.127 129.708 251.359C129.9 251.592 130.13 251.774 130.399 251.906C130.672 252.038 130.982 252.104 131.328 252.104C131.775 252.104 132.153 252.013 132.463 251.831C132.773 251.649 133.044 251.405 133.277 251.1L134.042 251.708C133.883 251.95 133.68 252.18 133.434 252.398C133.188 252.617 132.885 252.795 132.525 252.932C132.169 253.068 131.748 253.137 131.26 253.137ZM137.448 251.858L139.471 245.604H140.763L138.104 253H137.256L137.448 251.858ZM135.759 245.604L137.844 251.893L137.988 253H137.14L134.461 245.604H135.759ZM144.634 253.137C144.119 253.137 143.652 253.05 143.232 252.877C142.818 252.699 142.46 252.451 142.159 252.132C141.863 251.813 141.635 251.435 141.476 250.997C141.316 250.56 141.236 250.081 141.236 249.562V249.274C141.236 248.673 141.325 248.137 141.503 247.668C141.681 247.194 141.922 246.793 142.228 246.465C142.533 246.137 142.879 245.888 143.267 245.72C143.654 245.551 144.055 245.467 144.47 245.467C144.998 245.467 145.454 245.558 145.837 245.74C146.224 245.923 146.541 246.178 146.787 246.506C147.033 246.829 147.215 247.212 147.334 247.654C147.452 248.092 147.512 248.57 147.512 249.09V249.657H141.988V248.625H146.247V248.529C146.229 248.201 146.16 247.882 146.042 247.572C145.928 247.262 145.746 247.007 145.495 246.807C145.244 246.606 144.903 246.506 144.47 246.506C144.183 246.506 143.918 246.567 143.677 246.69C143.435 246.809 143.228 246.987 143.055 247.224C142.881 247.461 142.747 247.75 142.651 248.092C142.556 248.434 142.508 248.828 142.508 249.274V249.562C142.508 249.912 142.556 250.243 142.651 250.553C142.752 250.858 142.895 251.127 143.082 251.359C143.273 251.592 143.504 251.774 143.772 251.906C144.046 252.038 144.356 252.104 144.702 252.104C145.149 252.104 145.527 252.013 145.837 251.831C146.147 251.649 146.418 251.405 146.65 251.1L147.416 251.708C147.256 251.95 147.054 252.18 146.808 252.398C146.561 252.617 146.258 252.795 145.898 252.932C145.543 253.068 145.121 253.137 144.634 253.137ZM150.042 242.5V253H148.771V242.5H150.042ZM161.29 251.961V253H154.775V252.091L158.036 248.461C158.437 248.014 158.747 247.636 158.966 247.326C159.189 247.012 159.344 246.731 159.431 246.485C159.522 246.235 159.567 245.979 159.567 245.72C159.567 245.392 159.499 245.095 159.362 244.831C159.23 244.562 159.034 244.348 158.774 244.188C158.515 244.029 158.2 243.949 157.831 243.949C157.389 243.949 157.02 244.036 156.724 244.209C156.432 244.378 156.213 244.615 156.067 244.92C155.921 245.225 155.849 245.576 155.849 245.973H154.584C154.584 245.412 154.707 244.899 154.953 244.435C155.199 243.97 155.564 243.601 156.047 243.327C156.53 243.049 157.125 242.91 157.831 242.91C158.46 242.91 158.998 243.022 159.444 243.245C159.891 243.464 160.233 243.774 160.47 244.175C160.711 244.571 160.832 245.036 160.832 245.569C160.832 245.861 160.782 246.157 160.682 246.458C160.586 246.754 160.451 247.05 160.278 247.347C160.11 247.643 159.911 247.935 159.684 248.222C159.46 248.509 159.221 248.791 158.966 249.069L156.3 251.961H161.29Z" fill="#787878"/>
<path d="M121.056 276V264.8H123.168V276H121.056ZM125.019 276V268.064H127.003V269.104H127.291C127.419 268.827 127.659 268.565 128.011 268.32C128.363 268.064 128.896 267.936 129.611 267.936C130.229 267.936 130.768 268.08 131.227 268.368C131.696 268.645 132.059 269.035 132.315 269.536C132.571 270.027 132.699 270.603 132.699 271.264V276H130.683V271.424C130.683 270.827 130.533 270.379 130.235 270.08C129.947 269.781 129.531 269.632 128.987 269.632C128.368 269.632 127.888 269.84 127.547 270.256C127.205 270.661 127.035 271.232 127.035 271.968V276H125.019ZM134.526 272.832V271.008H139.262V272.832H134.526ZM141.08 276V264.8H145.688C146.392 264.8 147.011 264.944 147.544 265.232C148.088 265.509 148.51 265.904 148.808 266.416C149.118 266.928 149.272 267.536 149.272 268.24V268.464C149.272 269.157 149.112 269.765 148.792 270.288C148.483 270.8 148.056 271.2 147.512 271.488C146.979 271.765 146.371 271.904 145.688 271.904H143.192V276H141.08ZM143.192 269.984H145.48C145.982 269.984 146.387 269.845 146.696 269.568C147.006 269.291 147.16 268.912 147.16 268.432V268.272C147.16 267.792 147.006 267.413 146.696 267.136C146.387 266.859 145.982 266.72 145.48 266.72H143.192V269.984ZM150.481 276V268.064H152.465V268.96H152.753C152.87 268.64 153.062 268.405 153.329 268.256C153.606 268.107 153.926 268.032 154.289 268.032H155.249V269.824H154.257C153.745 269.824 153.323 269.963 152.993 270.24C152.662 270.507 152.497 270.923 152.497 271.488V276H150.481ZM159.999 276.224C159.21 276.224 158.5 276.064 157.871 275.744C157.242 275.424 156.746 274.96 156.383 274.352C156.02 273.744 155.839 273.013 155.839 272.16V271.904C155.839 271.051 156.02 270.32 156.383 269.712C156.746 269.104 157.242 268.64 157.871 268.32C158.5 268 159.21 267.84 159.999 267.84C160.788 267.84 161.498 268 162.127 268.32C162.756 268.64 163.252 269.104 163.615 269.712C163.978 270.32 164.159 271.051 164.159 271.904V272.16C164.159 273.013 163.978 273.744 163.615 274.352C163.252 274.96 162.756 275.424 162.127 275.744C161.498 276.064 160.788 276.224 159.999 276.224ZM159.999 274.432C160.618 274.432 161.13 274.235 161.535 273.84C161.94 273.435 162.143 272.859 162.143 272.112V271.952C162.143 271.205 161.94 270.635 161.535 270.24C161.14 269.835 160.628 269.632 159.999 269.632C159.38 269.632 158.868 269.835 158.463 270.24C158.058 270.635 157.855 271.205 157.855 271.952V272.112C157.855 272.859 158.058 273.435 158.463 273.84C158.868 274.235 159.38 274.432 159.999 274.432ZM165.316 272.064V271.808C165.316 270.976 165.481 270.267 165.812 269.68C166.143 269.083 166.58 268.629 167.124 268.32C167.679 268 168.281 267.84 168.932 267.84C169.657 267.84 170.207 267.968 170.58 268.224C170.953 268.48 171.225 268.747 171.396 269.024H171.684V268.064H173.668V277.408C173.668 277.952 173.508 278.384 173.188 278.704C172.868 279.035 172.441 279.2 171.908 279.2H166.596V277.44H171.204C171.503 277.44 171.652 277.28 171.652 276.96V274.896H171.364C171.257 275.067 171.108 275.243 170.916 275.424C170.724 275.595 170.468 275.739 170.148 275.856C169.828 275.973 169.423 276.032 168.932 276.032C168.281 276.032 167.679 275.877 167.124 275.568C166.58 275.248 166.143 274.795 165.812 274.208C165.481 273.611 165.316 272.896 165.316 272.064ZM169.508 274.272C170.127 274.272 170.644 274.075 171.06 273.68C171.476 273.285 171.684 272.731 171.684 272.016V271.856C171.684 271.131 171.476 270.576 171.06 270.192C170.655 269.797 170.137 269.6 169.508 269.6C168.889 269.6 168.372 269.797 167.956 270.192C167.54 270.576 167.332 271.131 167.332 271.856V272.016C167.332 272.731 167.54 273.285 167.956 273.68C168.372 274.075 168.889 274.272 169.508 274.272ZM175.583 276V268.064H177.567V268.96H177.855C177.972 268.64 178.164 268.405 178.431 268.256C178.708 268.107 179.028 268.032 179.391 268.032H180.351V269.824H179.359C178.847 269.824 178.426 269.963 178.095 270.24C177.764 270.507 177.599 270.923 177.599 271.488V276H175.583ZM184.942 276.224C184.152 276.224 183.454 276.059 182.846 275.728C182.248 275.387 181.779 274.912 181.438 274.304C181.107 273.685 180.942 272.96 180.942 272.128V271.936C180.942 271.104 181.107 270.384 181.438 269.776C181.768 269.157 182.232 268.683 182.83 268.352C183.427 268.011 184.12 267.84 184.91 267.84C185.688 267.84 186.366 268.016 186.942 268.368C187.518 268.709 187.966 269.189 188.286 269.808C188.606 270.416 188.766 271.125 188.766 271.936V272.624H182.99C183.011 273.168 183.214 273.611 183.598 273.952C183.982 274.293 184.451 274.464 185.006 274.464C185.571 274.464 185.987 274.341 186.254 274.096C186.52 273.851 186.723 273.579 186.862 273.28L188.51 274.144C188.36 274.421 188.142 274.725 187.854 275.056C187.576 275.376 187.203 275.653 186.734 275.888C186.264 276.112 185.667 276.224 184.942 276.224ZM183.006 271.12H186.718C186.675 270.661 186.488 270.293 186.158 270.016C185.838 269.739 185.416 269.6 184.894 269.6C184.35 269.6 183.918 269.739 183.598 270.016C183.278 270.293 183.08 270.661 183.006 271.12ZM193.536 276.224C192.501 276.224 191.653 276 190.992 275.552C190.331 275.104 189.931 274.464 189.792 273.632L191.648 273.152C191.723 273.525 191.845 273.819 192.016 274.032C192.197 274.245 192.416 274.4 192.672 274.496C192.939 274.581 193.227 274.624 193.536 274.624C194.005 274.624 194.352 274.544 194.576 274.384C194.8 274.213 194.912 274.005 194.912 273.76C194.912 273.515 194.805 273.328 194.592 273.2C194.379 273.061 194.037 272.949 193.568 272.864L193.12 272.784C192.565 272.677 192.059 272.533 191.6 272.352C191.141 272.16 190.773 271.899 190.496 271.568C190.219 271.237 190.08 270.811 190.08 270.288C190.08 269.499 190.368 268.896 190.944 268.48C191.52 268.053 192.277 267.84 193.216 267.84C194.101 267.84 194.837 268.037 195.424 268.432C196.011 268.827 196.395 269.344 196.576 269.984L194.704 270.56C194.619 270.155 194.443 269.867 194.176 269.696C193.92 269.525 193.6 269.44 193.216 269.44C192.832 269.44 192.539 269.509 192.336 269.648C192.133 269.776 192.032 269.957 192.032 270.192C192.032 270.448 192.139 270.64 192.352 270.768C192.565 270.885 192.853 270.976 193.216 271.04L193.664 271.12C194.261 271.227 194.8 271.371 195.28 271.552C195.771 271.723 196.155 271.973 196.432 272.304C196.72 272.624 196.864 273.061 196.864 273.616C196.864 274.448 196.56 275.093 195.952 275.552C195.355 276 194.549 276.224 193.536 276.224ZM201.607 276.224C200.572 276.224 199.724 276 199.063 275.552C198.401 275.104 198.001 274.464 197.863 273.632L199.719 273.152C199.793 273.525 199.916 273.819 200.087 274.032C200.268 274.245 200.487 274.4 200.743 274.496C201.009 274.581 201.297 274.624 201.607 274.624C202.076 274.624 202.423 274.544 202.647 274.384C202.871 274.213 202.983 274.005 202.983 273.76C202.983 273.515 202.876 273.328 202.663 273.2C202.449 273.061 202.108 272.949 201.639 272.864L201.191 272.784C200.636 272.677 200.129 272.533 199.671 272.352C199.212 272.16 198.844 271.899 198.567 271.568C198.289 271.237 198.151 270.811 198.151 270.288C198.151 269.499 198.439 268.896 199.015 268.48C199.591 268.053 200.348 267.84 201.287 267.84C202.172 267.84 202.908 268.037 203.495 268.432C204.081 268.827 204.465 269.344 204.647 269.984L202.775 270.56C202.689 270.155 202.513 269.867 202.247 269.696C201.991 269.525 201.671 269.44 201.287 269.44C200.903 269.44 200.609 269.509 200.407 269.648C200.204 269.776 200.103 269.957 200.103 270.192C200.103 270.448 200.209 270.64 200.423 270.768C200.636 270.885 200.924 270.976 201.287 271.04L201.735 271.12C202.332 271.227 202.871 271.371 203.351 271.552C203.841 271.723 204.225 271.973 204.503 272.304C204.791 272.624 204.935 273.061 204.935 273.616C204.935 274.448 204.631 275.093 204.023 275.552C203.425 276 202.62 276.224 201.607 276.224Z" fill="#323232"/>
<path d="M121.056 21V9.8H123.168V19.08H128.288V21H121.056ZM133.248 21.224C132.459 21.224 131.749 21.064 131.12 20.744C130.491 20.424 129.995 19.96 129.632 19.352C129.269 18.744 129.088 18.0133 129.088 17.16V16.904C129.088 16.0507 129.269 15.32 129.632 14.712C129.995 14.104 130.491 13.64 131.12 13.32C131.749 13 132.459 12.84 133.248 12.84C134.037 12.84 134.747 13 135.376 13.32C136.005 13.64 136.501 14.104 136.864 14.712C137.227 15.32 137.408 16.0507 137.408 16.904V17.16C137.408 18.0133 137.227 18.744 136.864 19.352C136.501 19.96 136.005 20.424 135.376 20.744C134.747 21.064 134.037 21.224 133.248 21.224ZM133.248 19.432C133.867 19.432 134.379 19.2347 134.784 18.84C135.189 18.4347 135.392 17.8587 135.392 17.112V16.952C135.392 16.2053 135.189 15.6347 134.784 15.24C134.389 14.8347 133.877 14.632 133.248 14.632C132.629 14.632 132.117 14.8347 131.712 15.24C131.307 15.6347 131.104 16.2053 131.104 16.952V17.112C131.104 17.8587 131.307 18.4347 131.712 18.84C132.117 19.2347 132.629 19.432 133.248 19.432ZM142.677 21.224C141.909 21.224 141.21 21.064 140.581 20.744C139.962 20.424 139.471 19.96 139.109 19.352C138.746 18.744 138.565 18.008 138.565 17.144V16.92C138.565 16.056 138.746 15.32 139.109 14.712C139.471 14.104 139.962 13.64 140.581 13.32C141.21 13 141.909 12.84 142.677 12.84C143.434 12.84 144.085 12.9733 144.629 13.24C145.173 13.5067 145.61 13.8747 145.941 14.344C146.282 14.8027 146.506 15.3253 146.613 15.912L144.661 16.328C144.618 16.008 144.522 15.72 144.373 15.464C144.223 15.208 144.01 15.0053 143.733 14.856C143.466 14.7067 143.13 14.632 142.725 14.632C142.319 14.632 141.951 14.7227 141.621 14.904C141.301 15.0747 141.045 15.336 140.853 15.688C140.671 16.0293 140.581 16.4507 140.581 16.952V17.112C140.581 17.6133 140.671 18.04 140.853 18.392C141.045 18.7333 141.301 18.9947 141.621 19.176C141.951 19.3467 142.319 19.432 142.725 19.432C143.333 19.432 143.791 19.2773 144.101 18.968C144.421 18.648 144.623 18.232 144.709 17.72L146.661 18.184C146.522 18.7493 146.282 19.2667 145.941 19.736C145.61 20.1947 145.173 20.5573 144.629 20.824C144.085 21.0907 143.434 21.224 142.677 21.224ZM148.004 21V9.8H150.02V15.992H150.308L152.932 13.064H155.556L151.892 16.904L155.684 21H153.092L150.308 17.848H150.02V21H148.004ZM159.847 21.224C159.057 21.224 158.359 21.0587 157.751 20.728C157.153 20.3867 156.684 19.912 156.343 19.304C156.012 18.6853 155.847 17.96 155.847 17.128V16.936C155.847 16.104 156.012 15.384 156.343 14.776C156.673 14.1573 157.137 13.6827 157.735 13.352C158.332 13.0107 159.025 12.84 159.815 12.84C160.593 12.84 161.271 13.016 161.847 13.368C162.423 13.7093 162.871 14.1893 163.191 14.808C163.511 15.416 163.671 16.1253 163.671 16.936V17.624H157.895C157.916 18.168 158.119 18.6107 158.503 18.952C158.887 19.2933 159.356 19.464 159.911 19.464C160.476 19.464 160.892 19.3413 161.159 19.096C161.425 18.8507 161.628 18.5787 161.767 18.28L163.415 19.144C163.265 19.4213 163.047 19.7253 162.759 20.056C162.481 20.376 162.108 20.6533 161.639 20.888C161.169 21.112 160.572 21.224 159.847 21.224ZM157.911 16.12H161.623C161.58 15.6613 161.393 15.2933 161.063 15.016C160.743 14.7387 160.321 14.6 159.799 14.6C159.255 14.6 158.823 14.7387 158.503 15.016C158.183 15.2933 157.985 15.6613 157.911 16.12ZM168.345 21.224C167.716 21.224 167.124 21.0693 166.569 20.76C166.025 20.44 165.588 19.976 165.257 19.368C164.926 18.76 164.761 18.024 164.761 17.16V16.904C164.761 16.04 164.926 15.304 165.257 14.696C165.588 14.088 166.025 13.6293 166.569 13.32C167.113 13 167.705 12.84 168.345 12.84C168.825 12.84 169.225 12.8987 169.545 13.016C169.876 13.1227 170.142 13.2613 170.345 13.432C170.548 13.6027 170.702 13.784 170.809 13.976H171.097V9.8H173.113V21H171.129V20.04H170.841C170.66 20.3387 170.377 20.6107 169.993 20.856C169.62 21.1013 169.07 21.224 168.345 21.224ZM168.953 19.464C169.572 19.464 170.089 19.2667 170.505 18.872C170.921 18.4667 171.129 17.88 171.129 17.112V16.952C171.129 16.184 170.921 15.6027 170.505 15.208C170.1 14.8027 169.582 14.6 168.953 14.6C168.334 14.6 167.817 14.8027 167.401 15.208C166.985 15.6027 166.777 16.184 166.777 16.952V17.112C166.777 17.88 166.985 18.4667 167.401 18.872C167.817 19.2667 168.334 19.464 168.953 19.464Z" fill="#323232"/>
<path d="M124 133.5V195.5" stroke="black" stroke-dasharray="4 4"/>
<path d="M261 6.5V68.5" stroke="black" stroke-dasharray="4 4"/>
<rect x="104" y="113" width="40" height="40" rx="20" fill="#323232"/>
<path d="M130 129.5H129V127.5C129 124.74 126.76 122.5 124 122.5C121.24 122.5 119 124.74 119 127.5V129.5H118C116.9 129.5 116 130.4 116 131.5V141.5C116 142.6 116.9 143.5 118 143.5H130C131.1 143.5 132 142.6 132 141.5V131.5C132 130.4 131.1 129.5 130 129.5ZM121 127.5C121 125.84 122.34 124.5 124 124.5C125.66 124.5 127 125.84 127 127.5V129.5H121V127.5ZM130 141.5H118V131.5H130V141.5ZM124 138.5C125.1 138.5 126 137.6 126 136.5C126 135.4 125.1 134.5 124 134.5C122.9 134.5 122 135.4 122 136.5C122 137.6 122.9 138.5 124 138.5Z" fill="#F2F2F2"/>
<rect x="241" y="-15" width="40" height="40" rx="20" fill="#323232"/>
<path d="M267 1.5H266V-0.5C266 -3.26 263.76 -5.5 261 -5.5C258.24 -5.5 256 -3.26 256 -0.5V1.5H255C253.9 1.5 253 2.4 253 3.5V13.5C253 14.6 253.9 15.5 255 15.5H267C268.1 15.5 269 14.6 269 13.5V3.5C269 2.4 268.1 1.5 267 1.5ZM258 -0.5C258 -2.16 259.34 -3.5 261 -3.5C262.66 -3.5 264 -2.16 264 -0.5V1.5H258V-0.5ZM267 13.5H255V3.5H267V13.5ZM261 10.5C262.1 10.5 263 9.6 263 8.5C263 7.4 262.1 6.5 261 6.5C259.9 6.5 259 7.4 259 8.5C259 9.6 259.9 10.5 261 10.5Z" fill="#F2F2F2"/>
<path d="M93 450H273C308.07 450 336.5 421.57 336.5 386.5C336.5 351.43 308.07 323 273 323L149.5 323" stroke="white" stroke-width="12" stroke-linecap="round"/>
<path d="M93 450H273C308.07 450 336.5 421.57 336.5 386.5C336.5 351.43 308.07 323 273 323L149.5 323" stroke="#E06D34" stroke-width="4" stroke-linecap="round"/>
<path d="M124 388V450" stroke="#E06D34"/>
<path d="M261 323H127.5C92.4299 323 64 294.57 64 259.5C64 224.43 92.4299 196 127.5 196H261" stroke="white" stroke-width="12"/>
<rect x="104" y="367" width="40" height="40" rx="20" fill="#E06D34"/>
<path d="M120.795 390.875L116.625 386.705L115.205 388.115L120.795 393.705L132.795 381.705L131.385 380.295L120.795 390.875Z" fill="white"/>
<path d="M261 323H127.5C92.4299 323 64 294.57 64 259.5C64 224.43 92.4299 196 127.5 196H261" stroke="#D5D5D5" stroke-width="2" stroke-dasharray="5 5"/>
<path d="M261 323H127.5C92.4299 323 64 294.57 64 259.5" stroke="#E06D34" stroke-width="4"/>
<path d="M261 69H127.5C92.4299 69 64 40.5701 64 5.5C64 -29.5701 92.4299 -58 127.5 -58H225.5" stroke="white" stroke-width="12" stroke-linecap="round"/>
<path d="M149.5 196H273C308.07 196 336.5 167.57 336.5 132.5C336.5 97.4299 308.07 69 273 69L149.5 69" stroke="white" stroke-width="12"/>
<path d="M261 69H127.5C92.4299 69 64 40.5701 64 5.5C64 -29.5701 92.4299 -58 127.5 -58H225.5" stroke="#D5D5D5" stroke-width="2" stroke-dasharray="5 5"/>
<path d="M146.5 196H273C308.07 196 336.5 167.57 336.5 132.5C336.5 97.4299 308.07 69 273 69H253.5" stroke="#D5D5D5" stroke-width="2" stroke-dasharray="5 5"/>
<circle cx="64" cy="256" r="9" fill="#E06D34"/>
<circle cx="94" cy="450" r="4" fill="#E06D34"/>
<path d="M261 261L261 324" stroke="#E06D34" stroke-dasharray="4 4"/>
<circle opacity="0.2" cx="261" cy="260" r="35" fill="#E06D34"/>
<circle opacity="0.2" cx="261" cy="260" r="27" fill="#E06D34"/>
<rect x="243" y="242" width="36" height="36" rx="18" fill="#F2F2F2"/>
<rect x="243" y="242" width="36" height="36" rx="18" stroke="#E06D34" stroke-width="4"/>
<path d="M271 260C271 265.52 266.52 270 261 270C255.48 270 251 265.52 251 260C251 257.24 252.12 254.74 253.93 252.93L261 260V250C266.52 250 271 254.48 271 260Z" fill="#E06D34"/>
<rect x="18" y="400" width="357" height="165" fill="url(#paint0_linear_3814_20928)"/>
<rect x="375" y="165" width="357" height="165" transform="rotate(-180 375 165)" fill="url(#paint1_linear_3814_20928)"/>
</g>
<defs>
<linearGradient id="paint0_linear_3814_20928" x1="196.5" y1="400" x2="196.5" y2="565" gradientUnits="userSpaceOnUse">
<stop stop-color="#F2F2F2" stop-opacity="0"/>
<stop offset="0.538462" stop-color="#F2F2F2"/>
</linearGradient>
<linearGradient id="paint1_linear_3814_20928" x1="553.5" y1="165" x2="553.5" y2="330" gradientUnits="userSpaceOnUse">
<stop stop-color="#F2F2F2" stop-opacity="0"/>
<stop offset="0.538462" stop-color="#F2F2F2"/>
</linearGradient>
<clipPath id="clip0_3814_20928">
<rect width="393" height="456" fill="white"/>
</clipPath>
</defs>
</svg>
